<?xml version="1.0" encoding="utf-8"?>
<!-- Generator: Adobe Illustrator 27.5.0, SVG Export Plug-In . SVG Version: 6.00 Build 0)  -->
<svg version="1.1" xmlns="http://www.w3.org/2000/svg" xmlns:xlink="http://www.w3.org/1999/xlink" x="0px" y="0px" width="804px"
	 height="350.9px" viewBox="0 0 804 350.9" style="enable-background:new 0 0 804 350.9;" xml:space="preserve">
<style type="text/css">
	.st0{fill:none;}
	.st1{fill:#051C2C;}
	.st2{fill:#FFFFFF;}
	.st3{fill:#061F79;}
	.st4{fill:#00A9F4;}
	.st5{fill:#75F0E7;}
	.st6{fill:#2251FF;}
	.st7{fill:#14B8AB;}
	.st8{fill:#0679C3;}
	.st9{fill:#9C217D;}
	.st10{fill:#F17E7E;}
	.st11{fill:#108980;}
	.st12{fill:#E479E4;}
	.st13{fill:#1537BA;}
	.st14{fill:#6ECBF7;}
	.st15{fill:#99E6FF;}
	.st16{fill:#103559;}
	.st17{fill:#2B5580;}
	.st18{fill:#5380AC;}
	.st19{fill:#E6E6E6;}
	.st20{fill:#34B4F4;}
	.st21{fill:none;stroke:#231F20;stroke-width:0.5;stroke-miterlimit:10;}
	.st22{fill:#231F20;}
	.st23{fill:#082644;}
	.st24{fill:#1B456E;}
	.st25{fill:#386694;}
	.st26{fill:#82A6C9;}
	.st27{fill:#084D91;}
	.st28{fill:#0863AA;}
	.st29{fill:#0291DC;}
	.st30{fill:#0E2B99;}
	.st31{fill:#1C44DC;}
	.st32{fill:#2972FF;}
	.st33{fill:#5E9DFF;}
	.st34{fill:#99C4FF;}
	.st35{fill:none;stroke:#FFFFFF;stroke-width:1.5;stroke-miterlimit:10;}
	.st36{fill:none;stroke:#051C2C;stroke-miterlimit:10;}
	.st37{fill:none;stroke:#00A9F4;stroke-miterlimit:10;}
	.st38{fill:none;stroke:#2251FF;stroke-miterlimit:10;}
	.st39{fill:none;stroke:#4D4D4D;stroke-width:0.5;stroke-miterlimit:10;}
	.st40{fill:none;stroke:#4D4D4D;stroke-width:0.5;stroke-miterlimit:10;stroke-dasharray:6.034,3.017;}
	.st41{fill:#4D4D4D;}
	.st42{fill:none;stroke:#4D4D4D;stroke-width:0.5;stroke-miterlimit:10;stroke-dasharray:5.9038,2.9519;}
	.st43{stroke:#757575;stroke-width:0.5;stroke-miterlimit:10;}
</style>
<g id="Rules_and_guides">
</g>
<g id="Exhibit">
</g>
<g id="Text">
	<g id="Source_long">
	</g>
	<g id="Source_short">
	</g>
	<g id="Attribution">
	</g>
	<g id="Footnote__x26__Source">
		<g id="Footnotes">
		</g>
		<g id="Attribution_and_source">
		</g>
	</g>
	<g id="Attribution_and_source_1_">
	</g>
	<g id="Attribution_and_source_new_1_">
	</g>
	<g id="Attribution_and_source_new">
	</g>
	<g id="X-axis">
	</g>
	<g id="XMLID_00000168835250351179632460000005863623202917768075_">
		<g>
			<g>
				<g id="Subtitle_x2F_Unit_of_measure_00000012468202532783243080000007545701408444228246_">
					<g>
						<g>
							<path d="M4.2,74.1H2.1l4.3-12.2h2.4L13,74.1h-2.2l-1-2.9H5.2L4.2,74.1z M8.4,66.6c-0.3-0.9-0.6-2-0.9-2.9h0
								c-0.3,0.9-0.6,2.1-0.9,3l-0.8,2.6h3.4L8.4,66.6z"/>
							<path d="M16.6,74.1h-2.2V61.8h2.2V74.1z"/>
							<path d="M26.9,61.8l-6.4,12.2h-2.1l6.5-12.2H26.9z"/>
							<path d="M33.4,74.1l-1.8-6.5c-0.4-1.3-0.7-2.8-1-3.9h0c0,0.6,0.1,2.8,0.1,5.1v5.3h-2.1V61.8h3.2l1.9,6.8
								c0.3,1.2,0.6,2.3,0.7,2.9h0c0.1-0.5,0.5-1.9,0.8-2.9l1.8-6.8h3.2v12.2h-2.1v-5.2c0-1.7,0.1-4.3,0.1-5.4h0
								c-0.1,0.5-0.8,3.4-1.1,4.4l-1.7,6.1H33.4z"/>
							<path d="M45.4,61.8v10.3h5.3v2h-7.4V61.8H45.4z"/>
							<path d="M56,65.5h2.1v4.8c0,1.3,0.3,2.2,1.5,2.2c1.3,0,1.8-1,1.8-2.4v-4.6h2.1v8.6h-2.1V73c-0.4,0.7-1.3,1.3-2.6,1.3
								c-1.2,0-2.8-0.4-2.8-3.3V65.5z"/>
							<path d="M71.4,67.9c-0.6-0.6-1.4-1-2.4-1c-0.8,0-1.4,0.3-1.4,0.8c0,0.6,0.6,0.7,1.8,1l1,0.2c1.3,0.3,2.5,0.8,2.5,2.4
								c0,2-1.8,2.9-3.7,2.9c-2.1,0-3.4-1-4-1.7l1.4-1.2c0.5,0.6,1.3,1.3,2.6,1.3c1,0,1.6-0.4,1.6-1c0-0.6-0.5-0.7-1.3-0.9l-1.3-0.3
								c-1.5-0.3-2.7-1-2.7-2.5c0-1.9,1.8-2.6,3.5-2.6c1.7,0,3,0.7,3.6,1.4L71.4,67.9z"/>
							<path d="M81.5,72.2c0,0.5,0.1,0.7,0.5,0.7h0.1v1.2c-0.2,0.1-0.5,0.1-1,0.1c-0.8,0-1.3-0.3-1.4-0.9c-0.4,0.4-1.1,0.9-2.6,0.9
								c-1.8,0-3.1-0.9-3.1-2.6c0-2.1,1.6-2.5,4.2-2.9l0.6-0.1c0.5-0.1,0.7-0.2,0.7-0.6V68c0-0.7-0.5-1.1-1.5-1.1
								c-1.1,0-1.7,0.5-1.7,1.5l-1.9-0.1c0-2.1,1.6-3,3.7-3c2,0,3.4,0.7,3.4,2.6V72.2z M79.5,71v-1.1c-0.2,0.1-0.4,0.2-0.7,0.3
								l-1.2,0.2c-1,0.2-1.5,0.5-1.5,1.2c0,0.7,0.5,1.1,1.5,1.1C78.7,72.8,79.5,72.2,79.5,71z"/>
							<path d="M85.7,74.5c0.1,0.8,0.5,1.5,1.9,1.5c1.5,0,2.1-0.6,2.1-2.3V73h0c-0.3,0.4-1,1.1-2.5,1.1c-2.3,0-3.8-1.7-3.8-4.3
								c0-2.7,1.4-4.5,3.8-4.5c1.2,0,2.1,0.5,2.6,1.1v-0.9h2.1v8.1c0,0.9-0.1,1.5-0.3,2.1c-0.5,1.4-1.9,2-4,2c-2.6,0-3.9-1.2-3.9-3
								L85.7,74.5z M87.6,67.1c-1.4,0-2.2,1-2.2,2.7s0.8,2.6,2.2,2.6c1.4,0,2.2-1,2.2-2.6C89.8,68.1,89,67.1,87.6,67.1z"/>
							<path d="M101.9,72.1c-0.4,0.6-1.5,2.2-4,2.2c-2.5,0-4.3-1.8-4.3-4.6c0-2.6,1.8-4.4,4.2-4.4c2.7,0,4.1,1.9,4.1,4.5
								c0,0.1,0,0.4,0,0.5h-6.2c0.1,1.2,0.9,2.2,2.4,2.2c1.5,0,2.2-1,2.5-1.5L101.9,72.1z M95.7,68.8h4.2c-0.1-1.1-0.8-1.9-2-1.9
								C96.5,66.9,95.7,67.8,95.7,68.8z"/>
							<path d="M109.8,73.2v0.9h-2.1V61.8h2.1v4.6c0.5-0.6,1.4-1.2,2.5-1.2c2.3,0,3.8,1.9,3.8,4.5c0,2.6-1.5,4.5-3.8,4.5
								C111.2,74.3,110.3,73.8,109.8,73.2z M111.9,72.5c1.3,0,2.2-1,2.2-2.7c0-1.7-0.9-2.7-2.2-2.7c-1.3,0-2.2,1.1-2.2,2.7
								C109.7,71.4,110.6,72.5,111.9,72.5z"/>
							<path d="M124.7,65.5l-2.9,9.6c-0.3,1-0.5,1.5-0.9,1.9c-0.5,0.5-1,0.7-2,0.7c-0.6,0-0.8-0.1-1.1-0.1v-1.7
								c0.2,0.1,0.4,0.1,0.7,0.1c0.9,0,1.2-0.4,1.4-1.1l0.1-0.5l-3.1-8.8h2.2l1.4,4.6c0.2,0.8,0.5,1.8,0.5,1.8h0c0,0,0.2-1,0.4-1.8
								l1.2-4.6H124.7z"/>
							<path d="M132.3,63.9h-2.1v-2.1h2.1V63.9z M132.3,74.1h-2.1v-8.6h2.1V74.1z"/>
							<path d="M142.4,74.1h-2.1v-4.3c0-0.6,0-1.2-0.1-1.6c-0.2-0.6-0.6-1-1.5-1c-1.3,0-1.9,1-1.9,2.4v4.6h-2.1v-8.6h2.1v1.1
								c0.4-0.8,1.4-1.3,2.7-1.3c1,0,1.8,0.3,2.4,1.1c0.4,0.6,0.6,1.2,0.6,2.9V74.1z"/>
							<path d="M144.1,69.8c0-2.6,1.5-4.5,3.8-4.5c1.1,0,2.1,0.5,2.5,1.1v-4.6h2.1v12.2h-2.1v-0.9c-0.5,0.7-1.4,1.1-2.5,1.1
								C145.7,74.3,144.1,72.4,144.1,69.8z M148.4,67.1c-1.3,0-2.2,1-2.2,2.7c0,1.7,0.9,2.7,2.2,2.7c1.3,0,2.2-1.1,2.2-2.7
								C150.6,68.1,149.7,67.1,148.4,67.1z"/>
							<path d="M154.9,65.5h2.1v4.8c0,1.3,0.3,2.2,1.5,2.2c1.3,0,1.8-1,1.8-2.4v-4.6h2.1v8.6h-2.1V73c-0.4,0.7-1.3,1.3-2.6,1.3
								c-1.2,0-2.8-0.4-2.8-3.3V65.5z"/>
							<path d="M170.2,67.9c-0.6-0.6-1.4-1-2.4-1c-0.8,0-1.4,0.3-1.4,0.8c0,0.6,0.6,0.7,1.8,1l1,0.2c1.3,0.3,2.5,0.8,2.5,2.4
								c0,2-1.8,2.9-3.7,2.9c-2.1,0-3.4-1-4-1.7l1.4-1.2c0.5,0.6,1.3,1.3,2.6,1.3c1,0,1.6-0.4,1.6-1c0-0.6-0.5-0.7-1.3-0.9l-1.3-0.3
								c-1.5-0.3-2.7-1-2.7-2.5c0-1.9,1.8-2.6,3.5-2.6c1.7,0,3,0.7,3.6,1.4L170.2,67.9z"/>
							<path d="M178.4,74.1c-0.4,0.1-0.9,0.1-1.5,0.1c-0.8,0-1.7-0.2-2.2-0.7c-0.3-0.4-0.4-0.9-0.4-1.7v-4.7h-1.8v-1.6h1.8v-3
								l2.1-0.5v3.4h2v1.6h-2v4.4c0,0.5,0.1,0.7,0.2,0.9c0.2,0.2,0.5,0.2,0.9,0.2c0.4,0,0.7,0,0.9-0.1V74.1z"/>
							<path d="M182.2,65.5v1.3c0.2-0.4,0.8-1.5,2.5-1.5c0.1,0,0.1,0,0.3,0v2.1c-0.2,0-0.4,0-0.6,0c-1.1,0-1.7,0.4-2,1.2
								c-0.2,0.4-0.2,0.9-0.2,1.7v3.9h-2.1v-8.6H182.2z"/>
							<path d="M193.3,65.5l-2.9,9.6c-0.3,1-0.5,1.5-0.9,1.9c-0.5,0.5-1,0.7-2,0.7c-0.6,0-0.8-0.1-1.1-0.1v-1.7
								c0.2,0.1,0.4,0.1,0.7,0.1c0.9,0,1.2-0.4,1.4-1.1l0.1-0.5l-3.1-8.8h2.2l1.4,4.6c0.2,0.8,0.5,1.8,0.5,1.8h0c0,0,0.2-1,0.4-1.8
								l1.2-4.6H193.3z"/>
							<path d="M197,71.7v1.8c0,0.3,0,0.7,0,1c-0.1,1.3-0.6,2.1-2.3,2.2v-1.2c0.7-0.1,1-0.3,1-1.3v-0.2h-1v-2.4H197z"/>
							<path d="M205.4,69.5c-2.1,0-2.7-2.1-2.7-3.9c0-1.9,0.6-3.9,2.7-3.9s2.7,2.1,2.7,3.9C208.1,67.5,207.5,69.5,205.4,69.5z
								 M205.4,62.4c-1.3,0-1.8,1.5-1.8,3.2c0,1.7,0.6,3.2,1.8,3.2s1.8-1.5,1.8-3.2C207.2,63.9,206.6,62.4,205.4,62.4z M214.5,61.8
								l-8.2,12.2h-1l8.2-12.2H214.5z M214.6,74.2c-2.1,0-2.7-2.1-2.7-3.9s0.6-3.9,2.7-3.9c2.1,0,2.7,2.1,2.7,3.9
								S216.8,74.2,214.6,74.2z M214.6,67.1c-1.3,0-1.8,1.5-1.8,3.2s0.6,3.2,1.8,3.2c1.3,0,1.8-1.5,1.8-3.2S215.9,67.1,214.6,67.1z"
								/>
						</g>
					</g>
				</g>
			</g>
		</g>
	</g>
	<g>
		<g>
			<g id="Glance_2_lines_3_">
				<g id="Glance_5_">
					<g id="Glance_6_">
						<g id="_Jobs_in_advanced_economies_are_increasingly_for_high-skill_workers._3_">
							<g>
								<path d="M4.8,22.9H2.1L7.5,7.3h3.1L16,22.9h-2.9L12,19.3H6.1L4.8,22.9z M10.1,13.4C9.8,12.2,9.4,10.8,9,9.7h0
									c-0.3,1.1-0.8,2.6-1.1,3.9l-1,3.4h4.4L10.1,13.4z"/>
								<path d="M17.6,12h2.6v6.1c0,1.7,0.4,2.8,2,2.8c1.6,0,2.3-1.3,2.3-3V12h2.6v10.9h-2.6v-1.4c-0.5,0.9-1.7,1.7-3.3,1.7
									c-1.5,0-3.6-0.6-3.6-4.3V12z"/>
								<path d="M36.5,23c-0.5,0.1-1.2,0.2-2,0.2c-1.1,0-2.2-0.2-2.8-0.9c-0.4-0.5-0.5-1.1-0.5-2.2v-6H29v-2h2.3V8.2L34,7.6V12h2.6
									v2H34v5.6c0,0.6,0.1,0.9,0.3,1.1c0.2,0.2,0.6,0.3,1.1,0.3c0.5,0,0.9,0,1.1-0.1V23z"/>
								<path d="M43.5,11.7c3.3,0,5.5,2.3,5.5,5.8c0,3.5-2.1,5.7-5.5,5.7s-5.5-2.2-5.5-5.7C38.1,14,40.2,11.7,43.5,11.7z M43.5,21
									c1.7,0,2.9-1.3,2.9-3.5c0-2.2-1.1-3.5-2.9-3.5s-2.9,1.3-2.9,3.5S41.9,21,43.5,21z"/>
								<path d="M60.6,13.4c0.7-0.8,1.8-1.7,3.7-1.7c1.4,0,2.3,0.4,2.9,1.1c0.7,0.8,1,1.5,1,4v6.2h-2.6v-5.5c0-2-0.1-3.4-2.1-3.4
									c-1.6,0-2.4,1.3-2.4,3v5.8h-2.6v-5.5c0-2-0.1-3.4-2.1-3.4c-1.6,0-2.4,1.3-2.4,3v5.8h-2.6V12H54v1.4c0.5-0.9,1.7-1.7,3.4-1.7
									c1.1,0,2.1,0.3,2.7,1.1C60.3,13,60.5,13.2,60.6,13.4z"/>
								<path d="M76,11.7c3.3,0,5.5,2.3,5.5,5.8c0,3.5-2.1,5.7-5.5,5.7c-3.4,0-5.5-2.2-5.5-5.7C70.5,14,72.6,11.7,76,11.7z M76,21
									c1.7,0,2.9-1.3,2.9-3.5c0-2.2-1.1-3.5-2.9-3.5s-2.9,1.3-2.9,3.5S74.3,21,76,21z"/>
								<path d="M90.1,23c-0.5,0.1-1.2,0.2-2,0.2c-1.1,0-2.2-0.2-2.8-0.9C85,21.7,85,21.1,85,20.1v-6h-2.3v-2H85V8.2l2.6-0.6V12h2.6
									v2h-2.6v5.6c0,0.6,0.1,0.9,0.3,1.1c0.2,0.2,0.6,0.3,1.1,0.3c0.5,0,0.9,0,1.1-0.1V23z"/>
								<path d="M95,10h-2.6V7.3H95V10z M95,22.9h-2.6V12H95V22.9z"/>
								<path d="M106.8,12l-3.6,10.9h-2.7L96.9,12h2.7l1.7,5.7c0.3,1.1,0.6,2.2,0.6,2.2h0c0,0,0.2-1.1,0.6-2.3l1.6-5.6H106.8z"/>
								<path d="M118.5,20.5c-0.5,0.8-2,2.8-5.2,2.8c-3.2,0-5.4-2.3-5.4-5.8c0-3.4,2.3-5.6,5.4-5.6c3.5,0,5.2,2.4,5.2,5.8
									c0,0.2,0,0.5,0,0.7h-8c0.2,1.5,1.1,2.8,3,2.8c2,0,2.9-1.3,3.2-1.9L118.5,20.5z M110.5,16.2h5.3c-0.1-1.4-1.1-2.4-2.6-2.4
									C111.6,13.8,110.6,14.9,110.5,16.2z"/>
								<path d="M128.6,21.8v5.5H126V12h2.6v1.2c0.6-0.8,1.8-1.5,3.2-1.5c3,0,4.9,2.3,4.9,5.8c0,3.3-1.9,5.7-4.9,5.7
									C130.4,23.2,129.3,22.6,128.6,21.8z M131.3,20.9c1.7,0,2.8-1.3,2.8-3.5c0-2.2-1.1-3.5-2.8-3.5c-1.7,0-2.8,1.4-2.8,3.5
									C128.5,19.6,129.6,20.9,131.3,20.9z"/>
								<path d="M139,12h2.6v6.1c0,1.7,0.4,2.8,2,2.8c1.6,0,2.3-1.3,2.3-3V12h2.6v10.9h-2.6v-1.4c-0.5,0.9-1.7,1.7-3.3,1.7
									c-1.5,0-3.6-0.6-3.6-4.3V12z"/>
								<path d="M154.3,22.9h-2.6V7.3h2.6V22.9z"/>
								<path d="M160,22.9h-2.6V7.3h2.6V22.9z"/>
								<path d="M170.1,15.1c-0.8-0.7-1.8-1.2-3.1-1.2c-1,0-1.8,0.4-1.8,1.1c0,0.8,0.8,0.9,2.3,1.3l1.3,0.3c1.7,0.4,3.2,1,3.2,3
									c0,2.5-2.3,3.7-4.8,3.7c-2.6,0-4.4-1.3-5.1-2.2l1.8-1.6c0.6,0.8,1.7,1.6,3.4,1.6c1.3,0,2.1-0.5,2.1-1.2
									c0-0.8-0.6-0.9-1.7-1.1l-1.6-0.3c-1.9-0.4-3.4-1.2-3.4-3.2c0-2.4,2.3-3.4,4.4-3.4c2.2,0,3.9,0.9,4.6,1.7L170.1,15.1z"/>
								<path d="M188.1,20.5c0,0.6,0.1,0.9,0.6,0.9h0.2V23c-0.3,0.1-0.6,0.1-1.3,0.1c-1,0-1.6-0.3-1.8-1.1c-0.5,0.5-1.4,1.2-3.3,1.2
									c-2.3,0-3.9-1.1-3.9-3.3c0-2.6,2-3.2,5.3-3.7l0.8-0.1c0.6-0.1,0.9-0.3,0.9-0.7v-0.1c0-0.9-0.6-1.4-2-1.4
									c-1.4,0-2.2,0.6-2.2,1.9l-2.5-0.1c0-2.7,2.1-3.8,4.8-3.8c2.5,0,4.4,0.9,4.4,3.3V20.5z M185.6,19v-1.4
									c-0.3,0.1-0.5,0.2-0.9,0.3l-1.5,0.3c-1.3,0.3-1.9,0.6-1.9,1.5c0,0.9,0.6,1.4,1.9,1.4C184.5,21.3,185.6,20.6,185.6,19z"/>
								<path d="M198.7,18.8c-0.3-1.1-0.6-2.5-0.8-3.7h0c-0.2,1.1-0.6,2.6-0.9,3.7l-1.2,4.1h-2.6L190,12h2.7l1.3,4.8
									c0.3,1.1,0.5,2,0.7,3.1h0c0.2-1.1,0.4-1.9,0.7-3.2l1.3-4.8h2.3l1.3,4.8c0.4,1.4,0.5,2,0.7,3.1h0c0.2-1.1,0.4-1.7,0.8-3.2
									l1.3-4.8h2.6l-3.3,10.9h-2.6L198.7,18.8z"/>
								<path d="M216.4,20.5c0,0.6,0.1,0.9,0.6,0.9h0.2V23c-0.3,0.1-0.6,0.1-1.3,0.1c-1,0-1.6-0.3-1.8-1.1c-0.5,0.5-1.4,1.2-3.3,1.2
									c-2.3,0-3.9-1.1-3.9-3.3c0-2.6,2-3.2,5.3-3.7L213,16c0.6-0.1,0.9-0.3,0.9-0.7v-0.1c0-0.9-0.6-1.4-2-1.4
									c-1.4,0-2.2,0.6-2.2,1.9l-2.5-0.1c0-2.7,2.1-3.8,4.8-3.8c2.5,0,4.4,0.9,4.4,3.3V20.5z M213.8,19v-1.4
									c-0.3,0.1-0.5,0.2-0.9,0.3l-1.5,0.3c-1.3,0.3-1.9,0.6-1.9,1.5c0,0.9,0.6,1.4,1.9,1.4C212.7,21.3,213.8,20.6,213.8,19z"/>
								<path d="M227.9,12l-3.7,12.3c-0.4,1.2-0.7,1.9-1.1,2.4c-0.6,0.6-1.3,0.9-2.6,0.9c-0.7,0-1.1-0.1-1.4-0.1v-2.1
									c0.3,0.1,0.6,0.1,0.9,0.1c1.1,0,1.5-0.5,1.7-1.4l0.2-0.7L218.1,12h2.8l1.8,5.9c0.3,1,0.6,2.3,0.6,2.3h0c0,0,0.3-1.2,0.6-2.3
									l1.6-5.9H227.9z"/>
								<path d="M243.8,20.5c0,0.6,0.1,0.9,0.6,0.9h0.2V23c-0.3,0.1-0.6,0.1-1.3,0.1c-1,0-1.6-0.3-1.8-1.1c-0.5,0.5-1.4,1.2-3.3,1.2
									c-2.3,0-3.9-1.1-3.9-3.3c0-2.6,2-3.2,5.3-3.7l0.8-0.1c0.6-0.1,0.9-0.3,0.9-0.7v-0.1c0-0.9-0.6-1.4-2-1.4
									c-1.4,0-2.2,0.6-2.2,1.9l-2.5-0.1c0-2.7,2.1-3.8,4.8-3.8c2.5,0,4.4,0.9,4.4,3.3V20.5z M241.3,19v-1.4
									c-0.3,0.1-0.5,0.2-0.9,0.3l-1.5,0.3c-1.3,0.3-1.9,0.6-1.9,1.5c0,0.9,0.6,1.4,1.9,1.4C240.2,21.3,241.3,20.6,241.3,19z"/>
								<path d="M253.8,15.1c-0.8-0.7-1.8-1.2-3.1-1.2c-1,0-1.8,0.4-1.8,1.1c0,0.8,0.8,0.9,2.3,1.3l1.3,0.3c1.7,0.4,3.2,1,3.2,3
									c0,2.5-2.3,3.7-4.8,3.7c-2.6,0-4.4-1.3-5.1-2.2l1.8-1.6c0.6,0.8,1.7,1.6,3.4,1.6c1.3,0,2.1-0.5,2.1-1.2
									c0-0.8-0.6-0.9-1.7-1.1l-1.6-0.3c-1.9-0.4-3.4-1.2-3.4-3.2c0-2.4,2.3-3.4,4.4-3.4c2.2,0,3.9,0.9,4.6,1.7L253.8,15.1z"/>
								<path d="M269.4,23c-0.5,0.1-1.2,0.2-2,0.2c-1.1,0-2.2-0.2-2.8-0.9c-0.4-0.5-0.5-1.1-0.5-2.2v-6h-2.3v-2h2.3V8.2l2.6-0.6V12
									h2.6v2h-2.6v5.6c0,0.6,0.1,0.9,0.3,1.1c0.2,0.2,0.6,0.3,1.1,0.3s0.9,0,1.2-0.1V23z"/>
								<path d="M281.4,22.9h-2.6v-5.5c0-0.8,0-1.5-0.2-2.1c-0.2-0.8-0.8-1.3-1.9-1.3c-1.6,0-2.4,1.3-2.4,3v5.8h-2.6V7.3h2.6v6.1
									c0.5-1,1.7-1.7,3.4-1.7c1.2,0,2.3,0.4,3,1.4c0.5,0.7,0.7,1.5,0.7,3.7V22.9z"/>
								<path d="M294.2,20.5c-0.5,0.8-2,2.8-5.2,2.8c-3.2,0-5.5-2.3-5.5-5.8c0-3.4,2.3-5.6,5.4-5.6c3.5,0,5.2,2.4,5.2,5.8
									c0,0.2,0,0.5,0,0.7h-8c0.2,1.5,1.1,2.8,3,2.8c2,0,2.9-1.3,3.2-1.9L294.2,20.5z M286.3,16.2h5.3c-0.1-1.4-1.1-2.4-2.6-2.4
									C287.3,13.8,286.3,14.9,286.3,16.2z"/>
								<path d="M304.3,22.9h-2.6V7.3h2.6V22.9z"/>
								<path d="M317.3,20.5c-0.5,0.8-2,2.8-5.2,2.8c-3.2,0-5.5-2.3-5.5-5.8c0-3.4,2.3-5.6,5.4-5.6c3.5,0,5.2,2.4,5.2,5.8
									c0,0.2,0,0.5,0,0.7h-8c0.2,1.5,1.1,2.8,3,2.8c2,0,2.9-1.3,3.2-1.9L317.3,20.5z M309.3,16.2h5.3c-0.1-1.4-1.1-2.4-2.6-2.4
									C310.4,13.8,309.4,14.9,309.3,16.2z"/>
								<path d="M328.5,20.5c0,0.6,0.1,0.9,0.6,0.9h0.2V23c-0.3,0.1-0.6,0.1-1.3,0.1c-1,0-1.6-0.3-1.8-1.1c-0.5,0.5-1.4,1.2-3.3,1.2
									c-2.3,0-3.9-1.1-3.9-3.3c0-2.6,2-3.2,5.3-3.7l0.8-0.1c0.6-0.1,0.9-0.3,0.9-0.7v-0.1c0-0.9-0.6-1.4-2-1.4
									c-1.4,0-2.2,0.6-2.2,1.9l-2.5-0.1c0-2.7,2.1-3.8,4.8-3.8c2.5,0,4.4,0.9,4.4,3.3V20.5z M326,19v-1.4
									c-0.3,0.1-0.5,0.2-0.9,0.3l-1.5,0.3c-1.3,0.3-1.9,0.6-1.9,1.5c0,0.9,0.6,1.4,1.9,1.4C324.9,21.3,326,20.6,326,19z"/>
								<path d="M330.9,17.5c0-3.4,1.9-5.8,4.9-5.8c1.4,0,2.6,0.7,3.2,1.4V7.3h2.6v15.6h-2.6v-1.1c-0.7,0.9-1.7,1.4-3.2,1.4
									C332.8,23.2,330.9,20.8,330.9,17.5z M336.3,14c-1.7,0-2.8,1.3-2.8,3.5c0,2.2,1.1,3.5,2.8,3.5c1.7,0,2.8-1.4,2.8-3.5
									C339.1,15.4,337.9,14,336.3,14z"/>
								<path d="M347.3,10h-2.6V7.3h2.6V10z M347.3,22.9h-2.6V12h2.6V22.9z"/>
								<path d="M360.2,22.9h-2.6v-5.5c0-0.8,0-1.5-0.2-2.1c-0.2-0.8-0.8-1.3-1.9-1.3c-1.6,0-2.4,1.3-2.4,3v5.8h-2.6V12h2.6v1.4
									c0.5-1,1.7-1.7,3.4-1.7c1.2,0,2.3,0.4,3,1.4c0.5,0.7,0.7,1.5,0.7,3.7V22.9z"/>
								<path d="M365.4,23.5c0.1,1,0.6,2,2.5,2c2,0,2.7-0.8,2.7-2.9v-1h0c-0.4,0.5-1.3,1.4-3.2,1.4c-3,0-4.8-2.2-4.8-5.5
									c0-3.4,1.8-5.7,4.8-5.7c1.5,0,2.7,0.7,3.3,1.4V12h2.6v10.3c0,1.2-0.1,1.9-0.3,2.6c-0.7,1.8-2.4,2.6-5.1,2.6
									c-3.4,0-4.9-1.5-5-3.8L365.4,23.5z M367.9,14c-1.8,0-2.8,1.2-2.8,3.4s1,3.4,2.8,3.4c1.7,0,2.8-1.3,2.8-3.4
									C370.7,15.3,369.7,14,367.9,14z"/>
								<path d="M384,10h-2.6V7.3h2.6V10z M384,22.9h-2.6V12h2.6V22.9z"/>
								<path d="M396.9,22.9h-2.6v-5.5c0-0.8,0-1.5-0.2-2.1c-0.2-0.8-0.8-1.3-1.9-1.3c-1.6,0-2.4,1.3-2.4,3v5.8h-2.6V12h2.6v1.4
									c0.5-1,1.7-1.7,3.4-1.7c1.2,0,2.3,0.4,3,1.4c0.5,0.7,0.7,1.5,0.7,3.7V22.9z"/>
								<path d="M399.2,17.5c0-3.4,1.9-5.8,4.9-5.8c1.4,0,2.6,0.7,3.2,1.4V7.3h2.6v15.6h-2.6v-1.1c-0.7,0.9-1.7,1.4-3.2,1.4
									C401.1,23.2,399.2,20.8,399.2,17.5z M404.6,14c-1.7,0-2.8,1.3-2.8,3.5c0,2.2,1.1,3.5,2.8,3.5c1.7,0,2.8-1.4,2.8-3.5
									C407.4,15.4,406.3,14,404.6,14z"/>
								<path d="M412.9,12h2.6v6.1c0,1.7,0.4,2.8,2,2.8c1.6,0,2.3-1.3,2.3-3V12h2.6v10.9h-2.6v-1.4c-0.5,0.9-1.7,1.7-3.3,1.7
									c-1.5,0-3.6-0.6-3.6-4.3V12z"/>
								<path d="M432.5,15.1c-0.8-0.7-1.8-1.2-3.1-1.2c-1,0-1.8,0.4-1.8,1.1c0,0.8,0.8,0.9,2.3,1.3l1.3,0.3c1.7,0.4,3.2,1,3.2,3
									c0,2.5-2.3,3.7-4.8,3.7c-2.6,0-4.4-1.3-5.1-2.2l1.8-1.6c0.6,0.8,1.7,1.6,3.4,1.6c1.3,0,2.1-0.5,2.1-1.2
									c0-0.8-0.6-0.9-1.7-1.1l-1.6-0.3c-1.9-0.4-3.4-1.2-3.4-3.2c0-2.4,2.3-3.4,4.4-3.4c2.2,0,3.9,0.9,4.6,1.7L432.5,15.1z"/>
								<path d="M443,23c-0.5,0.1-1.2,0.2-2,0.2c-1.1,0-2.2-0.2-2.8-0.9c-0.4-0.5-0.5-1.1-0.5-2.2v-6h-2.3v-2h2.3V8.2l2.6-0.6V12
									h2.6v2h-2.6v5.6c0,0.6,0.1,0.9,0.3,1.1c0.2,0.2,0.6,0.3,1.1,0.3s0.9,0,1.1-0.1V23z"/>
								<path d="M447.8,12v1.6c0.2-0.6,1.1-1.9,3.2-1.9c0.1,0,0.2,0,0.4,0v2.7c-0.3,0-0.5,0-0.7,0c-1.4,0-2.2,0.5-2.6,1.5
									c-0.2,0.6-0.3,1.2-0.3,2.2v4.9h-2.6V12H447.8z"/>
								<path d="M462,12l-3.7,12.3c-0.4,1.2-0.7,1.9-1.1,2.4c-0.6,0.6-1.3,0.9-2.6,0.9c-0.7,0-1.1-0.1-1.4-0.1v-2.1
									c0.3,0.1,0.6,0.1,0.9,0.1c1.1,0,1.5-0.5,1.7-1.4l0.2-0.7L452.1,12h2.8l1.8,5.9c0.3,1,0.6,2.3,0.6,2.3h0c0,0,0.3-1.2,0.6-2.3
									l1.6-5.9H462z"/>
								<path d="M475.4,23c-0.5,0.1-1.2,0.2-2,0.2c-1.1,0-2.2-0.2-2.8-0.9c-0.4-0.5-0.5-1.1-0.5-2.2v-6h-2.3v-2h2.3V8.2l2.6-0.6V12
									h2.6v2h-2.6v5.6c0,0.6,0.1,0.9,0.3,1.1c0.2,0.2,0.6,0.3,1.1,0.3s0.9,0,1.2-0.1V23z"/>
								<path d="M482.3,11.7c3.3,0,5.5,2.3,5.5,5.8c0,3.5-2.1,5.7-5.5,5.7s-5.5-2.2-5.5-5.7C476.9,14,479,11.7,482.3,11.7z
									 M482.3,21c1.7,0,2.9-1.3,2.9-3.5c0-2.2-1.1-3.5-2.9-3.5s-2.9,1.3-2.9,3.5S480.7,21,482.3,21z"/>
								<path d="M497.9,21.8v5.5h-2.6V12h2.6v1.2c0.6-0.8,1.8-1.5,3.2-1.5c3,0,4.9,2.3,4.9,5.8c0,3.3-1.9,5.7-4.9,5.7
									C499.6,23.2,498.6,22.6,497.9,21.8z M500.6,20.9c1.7,0,2.8-1.3,2.8-3.5c0-2.2-1.1-3.5-2.8-3.5c-1.7,0-2.8,1.4-2.8,3.5
									C497.8,19.6,498.9,20.9,500.6,20.9z"/>
								<path d="M508.2,12h2.6v6.1c0,1.7,0.4,2.8,2,2.8c1.6,0,2.3-1.3,2.3-3V12h2.6v10.9h-2.6v-1.4c-0.5,0.9-1.7,1.7-3.3,1.7
									c-1.5,0-3.6-0.6-3.6-4.3V12z"/>
								<path d="M527.2,23c-0.5,0.1-1.2,0.2-2,0.2c-1.1,0-2.2-0.2-2.8-0.9c-0.4-0.5-0.5-1.1-0.5-2.2v-6h-2.3v-2h2.3V8.2l2.6-0.6V12
									h2.6v2h-2.6v5.6c0,0.6,0.1,0.9,0.3,1.1c0.2,0.2,0.6,0.3,1.1,0.3s0.9,0,1.1-0.1V23z"/>
								<path d="M535.8,22.9H533l5.5-15.6h3.1l5.4,15.6h-2.9l-1.2-3.7H537L535.8,22.9z M541.1,13.4c-0.3-1.2-0.8-2.6-1.1-3.7h0
									c-0.3,1.1-0.8,2.6-1.2,3.9l-1,3.4h4.4L541.1,13.4z"/>
								<path d="M551.7,22.9h-2.8V7.3h2.8V22.9z"/>
								<path d="M568.9,20.5c0,0.6,0.1,0.9,0.6,0.9h0.2V23c-0.3,0.1-0.6,0.1-1.3,0.1c-1,0-1.6-0.3-1.8-1.1c-0.5,0.5-1.4,1.2-3.3,1.2
									c-2.3,0-3.9-1.1-3.9-3.3c0-2.6,2-3.2,5.3-3.7l0.8-0.1c0.6-0.1,0.9-0.3,0.9-0.7v-0.1c0-0.9-0.6-1.4-2-1.4
									c-1.4,0-2.2,0.6-2.2,1.9l-2.5-0.1c0-2.7,2.1-3.8,4.8-3.8c2.5,0,4.4,0.9,4.4,3.3V20.5z M566.3,19v-1.4
									c-0.3,0.1-0.5,0.2-0.9,0.3l-1.5,0.3c-1.3,0.3-1.9,0.6-1.9,1.5c0,0.9,0.6,1.4,1.9,1.4C565.3,21.3,566.3,20.6,566.3,19z"/>
								<path d="M581.7,22.9h-2.6v-5.5c0-0.8,0-1.5-0.2-2.1c-0.2-0.8-0.8-1.3-1.9-1.3c-1.6,0-2.4,1.3-2.4,3v5.8H572V12h2.6v1.4
									c0.5-1,1.7-1.7,3.4-1.7c1.2,0,2.3,0.4,3,1.4c0.5,0.7,0.7,1.5,0.7,3.7V22.9z"/>
								<path d="M584,17.5c0-3.4,1.9-5.8,4.9-5.8c1.4,0,2.6,0.7,3.2,1.4V7.3h2.6v15.6h-2.6v-1.1c-0.7,0.9-1.7,1.4-3.2,1.4
									C585.9,23.2,584,20.8,584,17.5z M589.4,14c-1.7,0-2.8,1.3-2.8,3.5c0,2.2,1.1,3.5,2.8,3.5c1.7,0,2.8-1.4,2.8-3.5
									C592.2,15.4,591.1,14,589.4,14z"/>
								<path d="M609.2,22.9l-2.3-8.3c-0.5-1.6-0.9-3.5-1.2-5h0c0,0.7,0.1,3.6,0.1,6.6v6.8h-2.7V7.3h4.1l2.5,8.6
									c0.4,1.5,0.8,3,0.9,3.7h0c0.1-0.6,0.6-2.4,1-3.7l2.3-8.6h4.1v15.6h-2.7v-6.6c0-2.2,0.1-5.5,0.2-6.9h0
									c-0.1,0.7-1,4.3-1.4,5.7l-2.2,7.8H609.2z"/>
								<path d="M624.4,7.3v13.1h6.7v2.5h-9.5V7.3H624.4z"/>
								<path d="M644.5,23c-0.5,0.1-1.2,0.2-2,0.2c-1.1,0-2.2-0.2-2.8-0.9c-0.4-0.5-0.5-1.1-0.5-2.2v-6H637v-2h2.3V8.2l2.6-0.6V12
									h2.6v2h-2.6v5.6c0,0.6,0.1,0.9,0.3,1.1c0.2,0.2,0.6,0.3,1.1,0.3s0.9,0,1.1-0.1V23z"/>
								<path d="M651.5,11.7c3.3,0,5.5,2.3,5.5,5.8c0,3.5-2.1,5.7-5.5,5.7c-3.4,0-5.5-2.2-5.5-5.7C646,14,648.1,11.7,651.5,11.7z
									 M651.5,21c1.7,0,2.9-1.3,2.9-3.5c0-2.2-1.2-3.5-2.9-3.5s-2.9,1.3-2.9,3.5S649.8,21,651.5,21z"/>
								<path d="M664.3,12h2.6v6.1c0,1.7,0.4,2.8,2,2.8c1.6,0,2.3-1.3,2.3-3V12h2.6v10.9h-2.6v-1.4c-0.5,0.9-1.7,1.7-3.3,1.7
									c-1.5,0-3.6-0.6-3.6-4.3V12z"/>
								<path d="M683.9,15.1c-0.8-0.7-1.8-1.2-3.1-1.2c-1,0-1.8,0.4-1.8,1.1c0,0.8,0.8,0.9,2.3,1.3l1.3,0.3c1.7,0.4,3.2,1,3.2,3
									c0,2.5-2.3,3.7-4.8,3.7c-2.6,0-4.4-1.3-5.1-2.2l1.8-1.6c0.6,0.8,1.7,1.6,3.4,1.6c1.3,0,2.1-0.5,2.1-1.2
									c0-0.8-0.6-0.9-1.7-1.1l-1.6-0.3c-1.9-0.4-3.4-1.2-3.4-3.2c0-2.4,2.3-3.4,4.4-3.4c2.2,0,3.9,0.9,4.6,1.7L683.9,15.1z"/>
								<path d="M697.9,20.5c-0.5,0.8-2,2.8-5.2,2.8c-3.2,0-5.5-2.3-5.5-5.8c0-3.4,2.3-5.6,5.4-5.6c3.5,0,5.2,2.4,5.2,5.8
									c0,0.2,0,0.5,0,0.7h-8c0.2,1.5,1.1,2.8,3,2.8c2,0,2.9-1.3,3.2-1.9L697.9,20.5z M689.9,16.2h5.3c-0.1-1.4-1.1-2.4-2.6-2.4
									C691,13.8,690,14.9,689.9,16.2z"/>
								<path d="M703.1,19.9v3h-3v-3H703.1z"/>
							</g>
						</g>
					</g>
				</g>
			</g>
		</g>
	</g>
	<g>
		<g id="Footnote_x2C__source_00000022559276640138657500000000276066499249729212_">
			<g>
				<g>
					<path d="M7.4,345.1L6,341.4c-0.3-0.8-0.9-2.8-1-3.4h0c0,0.3,0.1,2.4,0.1,3.3v3.8H4V337h1.4l1.5,4.2c0.3,0.9,0.8,2.3,0.9,2.6h0
						c0.1-0.3,0.5-1.6,0.8-2.4l1.5-4.4h1.5v8.2h-1v-3.8c0-0.9,0.1-2.9,0.1-3.4h0c-0.2,0.7-0.7,2.5-1,3.2l-1.4,4.1H7.4z"/>
					<path d="M17.2,341.3c-0.3-0.7-0.7-1.2-1.5-1.2c-1,0-1.7,0.8-1.7,2.2c0,1.3,0.7,2.1,1.7,2.1c0.8,0,1.2-0.4,1.5-1l0.8,0.4
						c-0.3,0.7-1.1,1.5-2.3,1.5c-1.6,0-2.7-1.1-2.7-3s1.1-3,2.7-3c1.2,0,2,0.6,2.3,1.5L17.2,341.3z"/>
					<path d="M26.2,345.1h-1.3l-2.9-4.1l-1.5,1.5v2.7h-1.1V337h1.1v4.2l4.1-4.2H26l-3.2,3.3L26.2,345.1z"/>
					<path d="M28,338.3h-1V337h1V338.3z M28,345.1h-1v-5.7h1V345.1z"/>
					<path d="M34.5,345.1h-1V342c0-1.4-0.4-1.9-1.3-1.9c-1,0-1.5,0.8-1.5,1.7v3.3h-1v-5.7h1v0.9c0.2-0.5,0.8-1,1.8-1
						c1.4,0,1.9,0.9,1.9,2.3V345.1z"/>
					<path d="M39.6,340.8c-0.3-0.4-0.8-0.7-1.6-0.7c-0.6,0-1.1,0.3-1.1,0.8c0,0.5,0.4,0.7,1.2,0.8l0.7,0.2c0.9,0.2,1.7,0.5,1.7,1.5
						c0,1.2-1.1,1.8-2.3,1.8c-1.3,0-2.1-0.6-2.5-1.2l0.7-0.6c0.3,0.5,0.9,0.9,1.8,0.9c0.8,0,1.3-0.3,1.3-0.9c0-0.5-0.4-0.6-1.1-0.8
						l-0.8-0.2c-1-0.2-1.7-0.6-1.7-1.6c0-1.1,1.1-1.7,2.1-1.7s1.8,0.4,2.2,0.9L39.6,340.8z"/>
					<path d="M42.4,342.5c0,1.3,0.7,2,1.8,2s1.6-0.7,1.8-1.1l0.7,0.5c-0.3,0.6-1.2,1.5-2.6,1.5c-1.6,0-2.8-1.1-2.8-3
						c0-1.8,1.1-3,2.7-3c1.7,0,2.6,1.2,2.6,3v0.2H42.4z M45.6,341.7c0-0.9-0.5-1.6-1.5-1.6c-1,0-1.6,0.7-1.7,1.6H45.6z"/>
					<path d="M52.4,339.4l-2.3,6.7c-0.4,1-0.7,1.4-1.6,1.4c-0.4,0-0.6,0-0.8-0.1v-0.9c0.2,0,0.4,0.1,0.6,0.1c0.4,0,0.6-0.2,0.9-0.8
						l0.2-0.6l-2-5.8h1.1l1,3l0.5,1.6h0c0.1-0.4,0.3-0.9,0.5-1.6l1-3H52.4z"/>
					<path d="M60.8,344.1c-0.6,0.8-1.4,1.2-2.4,1.2c-1.3,0-2.5-0.8-2.5-2.3c0-1.3,0.9-2,1.9-2.5c-0.2-0.3-0.9-1-0.9-1.9
						c0-0.9,0.7-1.7,2-1.7c1.3,0,1.9,0.8,1.9,1.7c0,0.9-0.5,1.6-1.6,2.2l1.5,1.8c0.2-0.4,0.3-0.9,0.4-1.5l0.9,0.3
						c-0.1,0.8-0.3,1.5-0.6,2.1l1.6,1.9h-1.3L60.8,344.1z M58.4,341.2c-0.8,0.4-1.5,0.9-1.5,1.8c0,0.9,0.8,1.4,1.6,1.4
						c0.7,0,1.4-0.3,1.8-0.9L58.4,341.2z M59.8,338.6c0-0.6-0.4-0.9-0.9-0.9c-0.6,0-0.9,0.3-0.9,0.9c0,0.7,0.7,1.3,0.8,1.5
						C59.4,339.7,59.8,339.2,59.8,338.6z"/>
					<path d="M72.2,339.4c-0.4-0.9-1.1-1.6-2.2-1.6c-1.6,0-2.6,1.4-2.6,3.3c0,1.9,0.9,3.3,2.6,3.3c1.2,0,1.9-0.7,2.2-1.7l1,0.3
						c-0.4,1.1-1.3,2.3-3.2,2.3c-2.4,0-3.7-1.7-3.7-4.2c0-2.5,1.4-4.2,3.7-4.2c1.8,0,2.8,1,3.2,2.1L72.2,339.4z"/>
					<path d="M76.7,339.3c1.7,0,2.7,1.2,2.7,3c0,1.8-1,3-2.7,3c-1.7,0-2.7-1.2-2.7-3C74,340.5,75,339.3,76.7,339.3z M76.7,344.5
						c1,0,1.7-0.8,1.7-2.2c0-1.4-0.7-2.2-1.7-2.2c-1,0-1.7,0.8-1.7,2.2C75,343.7,75.7,344.5,76.7,344.5z"/>
					<path d="M84.3,345.1v-3.1c0-1.2-0.2-1.9-1.1-1.9c-0.9,0-1.4,0.7-1.4,1.9v3.2h-1v-5.7h1v0.9c0.3-0.6,0.9-1,1.7-1
						c0.8,0,1.4,0.4,1.6,1.1c0.3-0.6,0.9-1.1,1.9-1.1c1.3,0,1.8,0.8,1.8,2.1v3.7h-1v-3.1c0-1.2-0.2-1.9-1.1-1.9
						c-0.9,0-1.4,0.7-1.4,1.9v3.2H84.3z"/>
					<path d="M91.5,344.3v3.1h-1v-8h1v0.8c0.3-0.5,0.9-1,1.8-1c1.5,0,2.5,1.2,2.5,3c0,1.8-1,3-2.5,3
						C92.4,345.3,91.8,344.9,91.5,344.3z M93.1,344.5c1,0,1.6-0.8,1.6-2.2c0-1.4-0.6-2.2-1.6-2.2c-1,0-1.6,0.8-1.6,2.2
						C91.4,343.7,92.1,344.5,93.1,344.5z"/>
					<path d="M96.9,341.3c0-1.2,0.9-1.9,2.3-1.9c1.2,0,2.2,0.3,2.2,1.7c0,0.3,0,0.6,0,1v1.9c0,0.5,0.1,0.6,0.4,0.6
						c0.1,0,0.2,0,0.2,0v0.7c-0.1,0-0.3,0.1-0.6,0.1c-0.5,0-0.9-0.2-0.9-0.8c-0.2,0.3-0.8,0.8-1.9,0.8c-1.1,0-2-0.6-2-1.7
						c0-1.2,1-1.5,2.3-1.8l0.7-0.1c0.5-0.1,0.8-0.2,0.8-0.6c0-0.6-0.3-1-1.3-1c-1,0-1.4,0.5-1.4,1.2L96.9,341.3z M100.1,344.1
						c0.2-0.2,0.4-0.5,0.4-1.1v-0.8c0,0-0.1,0.1-0.5,0.2l-1.1,0.2c-0.8,0.2-1.2,0.4-1.2,1c0,0.7,0.5,1,1.2,1
						C99.4,344.5,99.8,344.4,100.1,344.1z"/>
					<path d="M107.8,345.1h-1V342c0-1.4-0.4-1.9-1.3-1.9c-1,0-1.5,0.8-1.5,1.7v3.3h-1v-5.7h1v0.9c0.2-0.5,0.8-1,1.8-1
						c1.4,0,1.9,0.9,1.9,2.3V345.1z"/>
					<path d="M113.9,339.4l-2.3,6.7c-0.4,1-0.7,1.4-1.6,1.4c-0.4,0-0.6,0-0.8-0.1v-0.9c0.2,0,0.4,0.1,0.6,0.1c0.4,0,0.6-0.2,0.9-0.8
						l0.2-0.6l-2-5.8h1.1l1,3l0.5,1.6h0c0.1-0.4,0.3-0.9,0.5-1.6l1-3H113.9z"/>
				</g>
			</g>
		</g>
	</g>
	<rect x="17.9" y="98.6" class="st3" width="83.3" height="149.3"/>
	<rect x="133.6" y="131.8" class="st3" width="83.3" height="116.1"/>
	<rect x="249.3" y="134.5" class="st3" width="83.3" height="113.5"/>
	<rect x="364.9" y="149.9" class="st3" width="83.3" height="98"/>
	<rect x="480.6" y="155.7" class="st3" width="83.3" height="92.2"/>
	<g>
		<path d="M25.1,267.7h-1l4-10.2h1l3.9,10.2h-1.1l-1.2-3.1h-4.5L25.1,267.7z M29,259.8c-0.2-0.6-0.3-0.9-0.4-1.2h0
			c-0.1,0.4-0.2,0.6-0.5,1.3l-1.5,3.9h3.8L29,259.8z"/>
		<path d="M34.2,260.5h0.9v4.1c0,0.9,0.1,1.5,0.5,1.9c0.3,0.3,0.7,0.5,1.3,0.5c1.5,0,2-1.2,2-2.2v-4.2h0.9v7.1h-0.9v-1.2h0
			c-0.3,0.7-1,1.3-2.2,1.3c-0.7,0-1.4-0.2-1.8-0.7c-0.4-0.5-0.6-1.1-0.6-2.2V260.5z"/>
		<path d="M41.1,260.5h1.4v-2.7l0.9-0.2v2.9h1.7v0.7h-1.7v4.8c0,0.8,0.2,1,0.8,1c0.4,0,0.7-0.1,0.9-0.2v0.8
			c-0.2,0.1-0.7,0.2-1.1,0.2c-0.9,0-1.5-0.3-1.5-1.6v-5h-1.4V260.5z"/>
		<path d="M49.6,260.3c2,0,3.2,1.5,3.2,3.8c0,2.2-1.2,3.7-3.2,3.7s-3.2-1.5-3.2-3.7C46.3,261.8,47.6,260.3,49.6,260.3z M49.6,267.1
			c1.4,0,2.3-1.1,2.3-3c0-1.9-0.9-3-2.3-3c-1.4,0-2.3,1.1-2.3,3C47.3,266,48.2,267.1,49.6,267.1z"/>
		<path d="M63,263.8c0-1.1,0-1.7-0.3-2.2c-0.2-0.2-0.5-0.5-1-0.5c-1.2,0-1.9,1-1.9,2.7v3.8h-0.9v-3.9c0-1.1,0-1.7-0.3-2.2
			c-0.2-0.2-0.5-0.5-1-0.5c-1.2,0-1.9,1-1.9,2.7v3.8h-0.9v-7.1h0.9v1.2h0c0.3-0.9,1.2-1.4,2.1-1.4c0.9,0,1.8,0.5,1.9,1.5
			c0.3-0.9,1.2-1.5,2.2-1.5c0.5,0,1,0.1,1.4,0.5c0.5,0.5,0.7,1.1,0.7,2.5v4.3H63V263.8z"/>
		<path d="M68.9,260.3c2,0,3.2,1.5,3.2,3.8c0,2.2-1.2,3.7-3.2,3.7s-3.2-1.5-3.2-3.7C65.6,261.8,66.9,260.3,68.9,260.3z M68.9,267.1
			c1.4,0,2.3-1.1,2.3-3c0-1.9-0.9-3-2.3-3c-1.4,0-2.3,1.1-2.3,3C66.6,266,67.5,267.1,68.9,267.1z"/>
		<path d="M73.1,260.5h1.4v-2.7l0.9-0.2v2.9h1.7v0.7h-1.7v4.8c0,0.8,0.2,1,0.8,1c0.4,0,0.7-0.1,0.9-0.2v0.8
			c-0.2,0.1-0.7,0.2-1.1,0.2c-0.9,0-1.5-0.3-1.5-1.6v-5h-1.4V260.5z"/>
		<path d="M79.6,258.9h-0.9v-1.5h0.9V258.9z M79.6,267.7h-0.9v-7.1h0.9V267.7z"/>
		<path d="M84.4,267.7h-0.8l-2.5-7.1h0.9l1.6,4.7l0.4,1.2h0c0-0.1,0.2-0.6,0.4-1.2l1.8-4.6h0.9L84.4,267.7z"/>
		<path d="M94.5,265.9c-0.4,0.8-1.3,1.9-3.1,1.9c-2,0-3.3-1.4-3.3-3.8c0-2.2,1.3-3.7,3.2-3.7c2.1,0,3.1,1.6,3.1,3.7v0.1h-5.4v0.1
			c0,1.9,1.1,2.8,2.4,2.8c1.4,0,2.1-0.9,2.4-1.6L94.5,265.9z M89.1,263.5h4.4c0-1.1-0.8-2.3-2.2-2.3C90.1,261.1,89.2,262,89.1,263.5
			z"/>
		<path d="M38.4,287.1c-1.3-2-1.9-4.1-1.9-6.3c0-2.1,0.6-4.3,1.9-6.3l0.8,0.1c-1.1,1.9-1.7,4-1.7,6.2c0,2.1,0.6,4.3,1.7,6.2
			L38.4,287.1z"/>
		<path d="M46.3,284.7h-0.9v-3.8c0-1.1-0.1-1.8-0.5-2.2c-0.3-0.3-0.7-0.5-1.3-0.5c-0.7,0-1.2,0.2-1.5,0.6c-0.4,0.4-0.6,1.1-0.6,1.7
			v4.2h-0.9v-7.1h0.9v1.2h0c0.3-0.7,1.1-1.3,2.3-1.3c0.7,0,1.4,0.2,1.8,0.7c0.5,0.5,0.6,1,0.6,2.6V284.7z"/>
		<path d="M59,278.6h-7.3v-0.9H59V278.6z M59,281.2h-7.3v-0.8H59V281.2z"/>
		<path d="M69.2,284.7h-0.9V282h-4.7v-0.6l4.8-6.9h0.8v6.7h1.9v0.8h-1.9V284.7z M68.3,281.1v-3.4c0-0.8,0-1.6,0.1-2h0
			c-0.2,0.4-0.7,1.1-1.2,2l-2.4,3.5H68.3z"/>
		<path d="M72.6,279c-0.3-0.5-0.3-1.1-0.3-1.6c0-1.7,1.2-3.1,3.3-3.1c2.2,0,3.3,1.5,3.3,3.3c0,2.1-1.5,3.5-2.9,4.6
			c-0.9,0.8-1.9,1.4-2.2,1.6h5.2v0.8h-6.5v-0.8c0.8-0.5,2.2-1.6,3.5-2.7c1.1-1,2-1.9,2-3.5c0-1.6-1.1-2.5-2.4-2.5
			c-1.5,0-2.3,1.1-2.3,2.3c0,0.8,0.3,1.5,0.5,1.8L72.6,279z"/>
		<path d="M80.1,286.9c1.1-1.9,1.7-4.1,1.7-6.2c0-2.1-0.6-4.3-1.7-6.2l0.8-0.1c1.3,2,1.9,4.2,1.9,6.3c0,2.2-0.6,4.3-1.9,6.3
			L80.1,286.9z"/>
	</g>
	<g>
		<path d="M143.1,267.7h-1l4-10.2h1l3.9,10.2h-1.1l-1.2-3.1h-4.5L143.1,267.7z M146.9,259.8c-0.2-0.6-0.3-0.9-0.4-1.2h0
			c-0.1,0.4-0.2,0.6-0.5,1.3l-1.5,3.9h3.8L146.9,259.8z"/>
		<path d="M158.1,265.9c-0.4,0.8-1.3,1.9-3.1,1.9c-2,0-3.3-1.4-3.3-3.8c0-2.2,1.3-3.7,3.2-3.7c2.1,0,3.1,1.6,3.1,3.7v0.1h-5.4v0.1
			c0,1.9,1.1,2.8,2.4,2.8c1.4,0,2.1-0.9,2.4-1.6L158.1,265.9z M152.6,263.5h4.4c0-1.1-0.8-2.3-2.2-2.3
			C153.6,261.1,152.8,262,152.6,263.5z"/>
		<path d="M163.4,261.3c-0.2,0-0.3,0-0.5,0c-1.2,0-2.1,1-2.1,2.4v4h-0.9v-7.1h0.9v1.4h0c0.3-0.8,1.1-1.6,2.2-1.6c0.2,0,0.3,0,0.5,0
			V261.3z"/>
		<path d="M167.6,260.3c2,0,3.2,1.5,3.2,3.8c0,2.2-1.2,3.7-3.2,3.7s-3.2-1.5-3.2-3.7C164.4,261.8,165.6,260.3,167.6,260.3z
			 M167.6,267.1c1.4,0,2.3-1.1,2.3-3c0-1.9-0.9-3-2.3-3c-1.4,0-2.3,1.1-2.3,3C165.3,266,166.3,267.1,167.6,267.1z"/>
		<path d="M176.8,262c-0.4-0.5-1-0.9-1.9-0.9c-0.9,0-1.6,0.4-1.6,1.1c0,0.8,0.5,1,1.4,1.2l0.9,0.2c1.2,0.3,2.1,0.7,2.1,2
			c0,1.4-1.2,2.1-2.7,2.1c-1.5,0-2.5-0.7-3-1.5l0.7-0.5c0.5,0.7,1.2,1.2,2.3,1.2c1.2,0,1.8-0.6,1.8-1.3c0-0.8-0.6-1-1.5-1.2l-1-0.2
			c-1.3-0.3-2-0.8-2-2c0-1.3,1.2-2,2.5-2c1.2,0,2.1,0.5,2.6,1.1L176.8,262z"/>
		<path d="M180.4,266.4v4.1h-0.9v-10h0.9v1.3c0.3-0.8,1.2-1.4,2.3-1.4c1.8,0,3,1.4,3,3.8c0,2.4-1.2,3.7-3,3.7
			C181.5,267.8,180.7,267.2,180.4,266.4z M182.5,267.1c1.4,0,2.2-1.1,2.2-3c0-1.9-0.9-3-2.2-3c-1.3,0-2.2,1-2.2,3
			C180.3,266,181.2,267.1,182.5,267.1z"/>
		<path d="M192.6,262.6v3.6c0,0.7,0.2,0.9,0.6,0.9c0.2,0,0.3,0,0.4-0.1v0.6c-0.1,0-0.4,0.1-0.7,0.1c-0.7,0-1.1-0.2-1.2-1.2h0
			c-0.3,0.6-1.1,1.2-2.4,1.2c-1.4,0-2.4-0.7-2.4-2c0-1.4,1.3-1.9,3-2.2l0.8-0.1c0.8-0.2,1-0.3,1-0.8v-0.1c0-0.9-0.5-1.5-1.8-1.5
			c-1.3,0-1.8,0.7-1.8,1.7l-0.9-0.1c0-1.4,1.1-2.3,2.8-2.3C191.4,260.4,192.6,260.8,192.6,262.6z M191.7,265.1v-1.4
			c-0.1,0.1-0.3,0.2-0.6,0.2l-1.7,0.4c-1,0.2-1.5,0.5-1.5,1.4c0,0.9,0.7,1.4,1.7,1.4C190.7,267.1,191.7,266.4,191.7,265.1z"/>
		<path d="M199.6,262.7c-0.4-1-1-1.6-2-1.6c-1.4,0-2.3,1.1-2.3,3c0,1.9,0.9,3,2.3,3c1,0,1.6-0.5,2.1-1.4l0.7,0.4
			c-0.5,1-1.4,1.7-2.8,1.7c-2,0-3.2-1.4-3.2-3.7c0-2.3,1.3-3.8,3.2-3.8c1.4,0,2.3,0.7,2.8,1.9L199.6,262.7z"/>
		<path d="M208,265.9c-0.4,0.8-1.3,1.9-3.1,1.9c-2,0-3.3-1.4-3.3-3.8c0-2.2,1.3-3.7,3.2-3.7c2.1,0,3.1,1.6,3.1,3.7v0.1h-5.4v0.1
			c0,1.9,1.1,2.8,2.4,2.8c1.4,0,2.1-0.9,2.4-1.6L208,265.9z M202.5,263.5h4.4c0-1.1-0.8-2.3-2.2-2.3
			C203.5,261.1,202.6,262,202.5,263.5z"/>
		<path d="M142.9,279.6v3.6c0,0.7,0.2,0.9,0.6,0.9c0.2,0,0.3,0,0.4-0.1v0.6c-0.1,0-0.4,0.1-0.7,0.1c-0.7,0-1.1-0.2-1.2-1.2h0
			c-0.3,0.6-1.1,1.2-2.4,1.2c-1.4,0-2.4-0.7-2.4-2c0-1.4,1.3-1.9,3-2.2l0.8-0.1c0.8-0.2,1-0.3,1-0.8v-0.1c0-0.9-0.5-1.5-1.8-1.5
			c-1.3,0-1.8,0.7-1.8,1.7l-0.9-0.1c0-1.4,1.1-2.3,2.8-2.3C141.7,277.4,142.9,277.8,142.9,279.6z M142,282.1v-1.4
			c-0.1,0.1-0.3,0.2-0.6,0.2l-1.7,0.4c-1,0.2-1.5,0.5-1.5,1.4c0,0.9,0.7,1.4,1.7,1.4C141,284.1,142,283.4,142,282.1z"/>
		<path d="M150.7,284.7h-0.9v-3.8c0-1.1-0.1-1.8-0.5-2.2c-0.3-0.3-0.7-0.5-1.3-0.5c-0.7,0-1.2,0.2-1.5,0.6c-0.4,0.4-0.6,1.1-0.6,1.7
			v4.2h-0.9v-7.1h0.9v1.2h0c0.3-0.7,1.1-1.3,2.3-1.3c0.7,0,1.4,0.2,1.8,0.7c0.5,0.5,0.6,1,0.6,2.6V284.7z"/>
		<path d="M152.5,281.1c0-2.4,1.2-3.8,3-3.8c1.1,0,2,0.6,2.3,1.4v-4.3h0.9v10.2h-0.9v-1.3c-0.4,0.8-1.2,1.5-2.4,1.5
			C153.7,284.8,152.5,283.5,152.5,281.1z M155.7,278.1c-1.4,0-2.2,1-2.2,3c0,1.9,0.8,3,2.2,3c1.4,0,2.2-1,2.2-3
			C157.9,279.1,157,278.1,155.7,278.1z"/>
		<path d="M164.1,281.1c0-2.4,1.2-3.8,3-3.8c1.1,0,2,0.6,2.3,1.4v-4.3h0.9v10.2h-0.9v-1.3c-0.4,0.8-1.2,1.5-2.4,1.5
			C165.3,284.8,164.1,283.5,164.1,281.1z M167.3,278.1c-1.4,0-2.2,1-2.2,3c0,1.9,0.8,3,2.2,3c1.4,0,2.2-1,2.2-3
			C169.5,279.1,168.6,278.1,167.3,278.1z"/>
		<path d="M178.6,282.9c-0.4,0.8-1.3,1.9-3.1,1.9c-2,0-3.3-1.4-3.3-3.8c0-2.2,1.3-3.7,3.2-3.7c2.1,0,3.1,1.6,3.1,3.7v0.1h-5.4v0.1
			c0,1.9,1.1,2.8,2.4,2.8c1.4,0,2.1-0.9,2.4-1.6L178.6,282.9z M173.1,280.5h4.4c0-1.1-0.8-2.3-2.2-2.3
			C174.1,278.1,173.2,279,173.1,280.5z"/>
		<path d="M183.6,278.2H182v6.5h-0.9v-6.5h-1.6v-0.7h1.6v-1.6c0-0.6,0.1-0.9,0.3-1.2c0.3-0.3,0.7-0.5,1.3-0.5c0.4,0,0.7,0.1,0.9,0.1
			v0.8c-0.2-0.1-0.6-0.2-0.9-0.2c-0.3,0-0.4,0.1-0.5,0.2c-0.2,0.2-0.2,0.4-0.2,0.8v1.5h1.6V278.2z"/>
		<path d="M190.9,282.9c-0.4,0.8-1.3,1.9-3.1,1.9c-2,0-3.3-1.4-3.3-3.8c0-2.2,1.3-3.7,3.2-3.7c2.1,0,3.1,1.6,3.1,3.7v0.1h-5.4v0.1
			c0,1.9,1.1,2.8,2.4,2.8c1.4,0,2.1-0.9,2.4-1.6L190.9,282.9z M185.5,280.5h4.4c0-1.1-0.8-2.3-2.2-2.3
			C186.4,278.1,185.6,279,185.5,280.5z"/>
		<path d="M198.3,284.7h-0.9v-3.8c0-1.1-0.1-1.8-0.5-2.2c-0.3-0.3-0.7-0.5-1.3-0.5c-0.7,0-1.2,0.2-1.5,0.6c-0.4,0.4-0.6,1.1-0.6,1.7
			v4.2h-0.9v-7.1h0.9v1.2h0c0.3-0.7,1.1-1.3,2.3-1.3c0.7,0,1.4,0.2,1.8,0.7c0.5,0.5,0.6,1,0.6,2.6V284.7z"/>
		<path d="M204.6,279c-0.4-0.5-1-0.9-1.9-0.9c-0.9,0-1.6,0.4-1.6,1.1c0,0.8,0.5,1,1.4,1.2l0.9,0.2c1.2,0.3,2.1,0.7,2.1,2
			c0,1.4-1.2,2.1-2.7,2.1c-1.5,0-2.5-0.7-3-1.5l0.7-0.5c0.5,0.7,1.2,1.2,2.3,1.2c1.2,0,1.8-0.6,1.8-1.3c0-0.8-0.6-1-1.5-1.2l-1-0.2
			c-1.3-0.3-2-0.8-2-2c0-1.3,1.2-2,2.5-2c1.2,0,2.1,0.5,2.6,1.1L204.6,279z"/>
		<path d="M213.2,282.9c-0.4,0.8-1.3,1.9-3.1,1.9c-2,0-3.3-1.4-3.3-3.8c0-2.2,1.3-3.7,3.2-3.7c2.1,0,3.1,1.6,3.1,3.7v0.1h-5.4v0.1
			c0,1.9,1.1,2.8,2.4,2.8c1.4,0,2.1-0.9,2.4-1.6L213.2,282.9z M207.7,280.5h4.4c0-1.1-0.8-2.3-2.2-2.3
			C208.7,278.1,207.8,279,207.7,280.5z"/>
		<path d="M155.3,304.1c-1.3-2-1.9-4.1-1.9-6.3c0-2.1,0.6-4.3,1.9-6.3l0.8,0.1c-1.1,1.9-1.7,4-1.7,6.2c0,2.1,0.6,4.3,1.7,6.2
			L155.3,304.1z"/>
		<path d="M163.2,301.7h-0.9v-3.8c0-1.1-0.1-1.8-0.5-2.2c-0.3-0.3-0.7-0.5-1.3-0.5c-0.7,0-1.2,0.2-1.5,0.6c-0.4,0.4-0.6,1.1-0.6,1.7
			v4.2h-0.9v-7.1h0.9v1.2h0c0.3-0.7,1.1-1.3,2.3-1.3c0.7,0,1.4,0.2,1.8,0.7c0.5,0.5,0.6,1,0.6,2.6V301.7z"/>
		<path d="M175.9,295.6h-7.3v-0.9h7.3V295.6z M175.9,298.2h-7.3v-0.8h7.3V298.2z"/>
		<path d="M183.3,301.7v-7.8c-0.5,0.5-1.4,0.6-2.2,0.6c-0.1,0-0.3,0-0.5,0v-0.8h0.2c0.8,0,1.4-0.2,1.7-0.4c0.5-0.4,0.8-1,0.8-1.7
			h0.8v10.2H183.3z"/>
		<path d="M192.2,294c-0.1-0.5-0.5-1.9-2.1-1.9c-1.8,0-2.7,1.7-2.8,4.2c0.5-0.8,1.5-1.4,2.8-1.4c1.7,0,3.2,1.2,3.2,3.3
			c0,1.9-1.2,3.6-3.4,3.6c-2.1,0-3.7-1.6-3.7-5.2c0-3.3,1.3-5.3,3.8-5.3c2.1,0,2.8,1.5,3,2.4L192.2,294z M189.9,301
			c1.3,0,2.4-1,2.4-2.7c0-1.7-1.1-2.6-2.4-2.6s-2.3,0.9-2.6,1.6C187.4,299.6,188.3,301,189.9,301z"/>
		<path d="M194.4,303.9c1.1-1.9,1.7-4.1,1.7-6.2c0-2.1-0.6-4.3-1.7-6.2l0.8-0.1c1.3,2,1.9,4.2,1.9,6.3c0,2.2-0.6,4.3-1.9,6.3
			L194.4,303.9z"/>
	</g>
	<g>
		<path d="M279.1,262.3c1.3,0.3,2.1,1.2,2.1,2.5c0,1.1-0.5,2-1.4,2.4c-0.5,0.3-1.1,0.5-2.4,0.5h-4.1v-10.2h3.9c1,0,2,0,2.7,0.7
			c0.5,0.5,0.9,1.1,0.9,1.9C280.8,261.1,280.2,261.9,279.1,262.3z M278.8,258.5c-0.4-0.2-0.7-0.2-1.7-0.2h-2.9v3.7h2.9
			c0.9,0,1.3-0.1,1.7-0.2c0.6-0.3,1-0.8,1-1.6C279.8,259.4,279.4,258.8,278.8,258.5z M274.2,266.8h3.1c0.6,0,1.5,0,2-0.4
			c0.5-0.3,0.8-0.9,0.8-1.6c0-0.7-0.3-1.2-0.8-1.6c-0.6-0.4-1.4-0.4-2.1-0.4h-3V266.8z"/>
		<path d="M288,262.6v3.6c0,0.7,0.2,0.9,0.6,0.9c0.2,0,0.3,0,0.4-0.1v0.6c-0.1,0-0.4,0.1-0.7,0.1c-0.7,0-1.1-0.2-1.2-1.2h0
			c-0.3,0.6-1.1,1.2-2.4,1.2c-1.4,0-2.4-0.7-2.4-2c0-1.4,1.3-1.9,3-2.2l0.8-0.1c0.8-0.2,1-0.3,1-0.8v-0.1c0-0.9-0.5-1.5-1.8-1.5
			c-1.3,0-1.8,0.7-1.8,1.7l-0.9-0.1c0-1.4,1.1-2.3,2.8-2.3C286.9,260.4,288,260.8,288,262.6z M287.2,265.1v-1.4
			c-0.1,0.1-0.3,0.2-0.6,0.2l-1.7,0.4c-1,0.2-1.5,0.5-1.5,1.4c0,0.9,0.7,1.4,1.7,1.4C286.2,267.1,287.2,266.4,287.2,265.1z"/>
		<path d="M294.4,262c-0.4-0.5-1-0.9-1.9-0.9c-0.9,0-1.6,0.4-1.6,1.1c0,0.8,0.5,1,1.4,1.2l0.9,0.2c1.2,0.3,2.1,0.7,2.1,2
			c0,1.4-1.2,2.1-2.7,2.1c-1.5,0-2.5-0.7-3-1.5l0.7-0.5c0.5,0.7,1.2,1.2,2.3,1.2c1.2,0,1.8-0.6,1.8-1.3c0-0.8-0.6-1-1.5-1.2l-1-0.2
			c-1.3-0.3-2-0.8-2-2c0-1.3,1.2-2,2.5-2c1.2,0,2.1,0.5,2.6,1.1L294.4,262z"/>
		<path d="M298,258.9h-0.9v-1.5h0.9V258.9z M298,267.7h-0.9v-7.1h0.9V267.7z"/>
		<path d="M305.1,262.7c-0.4-1-1-1.6-2-1.6c-1.4,0-2.3,1.1-2.3,3c0,1.9,0.9,3,2.3,3c1,0,1.6-0.5,2.1-1.4l0.7,0.4
			c-0.5,1-1.4,1.7-2.8,1.7c-2,0-3.2-1.4-3.2-3.7c0-2.3,1.3-3.8,3.2-3.8c1.4,0,2.3,0.7,2.8,1.9L305.1,262.7z"/>
		<path d="M272,280.8c0-1.1,0-1.7-0.3-2.2c-0.2-0.2-0.5-0.5-1-0.5c-1.2,0-1.9,1-1.9,2.7v3.8h-0.9v-3.9c0-1.1,0-1.7-0.3-2.2
			c-0.2-0.2-0.5-0.5-1-0.5c-1.2,0-1.9,1-1.9,2.7v3.8h-0.9v-7.1h0.9v1.2h0c0.3-0.9,1.2-1.4,2.1-1.4c0.9,0,1.8,0.5,1.9,1.5
			c0.3-0.9,1.2-1.5,2.2-1.5c0.5,0,1,0.1,1.4,0.5c0.5,0.5,0.7,1.1,0.7,2.5v4.3H272V280.8z"/>
		<path d="M280.2,279.6v3.6c0,0.7,0.2,0.9,0.6,0.9c0.2,0,0.3,0,0.4-0.1v0.6c-0.1,0-0.4,0.1-0.7,0.1c-0.7,0-1.1-0.2-1.2-1.2h0
			c-0.3,0.6-1.1,1.2-2.4,1.2c-1.4,0-2.4-0.7-2.4-2c0-1.4,1.3-1.9,3-2.2l0.8-0.1c0.8-0.2,1-0.3,1-0.8v-0.1c0-0.9-0.5-1.5-1.8-1.5
			c-1.3,0-1.8,0.7-1.8,1.7l-0.9-0.1c0-1.4,1.1-2.3,2.8-2.3C279,277.4,280.2,277.8,280.2,279.6z M279.3,282.1v-1.4
			c-0.1,0.1-0.3,0.2-0.6,0.2l-1.7,0.4c-1,0.2-1.5,0.5-1.5,1.4c0,0.9,0.7,1.4,1.7,1.4C278.3,284.1,279.3,283.4,279.3,282.1z"/>
		<path d="M281.6,277.5h1.4v-2.7l0.9-0.2v2.9h1.7v0.7h-1.7v4.8c0,0.8,0.2,1,0.8,1c0.4,0,0.7-0.1,0.9-0.2v0.8
			c-0.2,0.1-0.7,0.2-1.1,0.2c-0.9,0-1.5-0.3-1.5-1.6v-5h-1.4V277.5z"/>
		<path d="M293.2,282.9c-0.4,0.8-1.3,1.9-3.1,1.9c-2,0-3.3-1.4-3.3-3.8c0-2.2,1.3-3.7,3.2-3.7c2.1,0,3.1,1.6,3.1,3.7v0.1h-5.4v0.1
			c0,1.9,1.1,2.8,2.4,2.8c1.4,0,2.1-0.9,2.4-1.6L293.2,282.9z M287.7,280.5h4.4c0-1.1-0.8-2.3-2.2-2.3
			C288.7,278.1,287.8,279,287.7,280.5z"/>
		<path d="M298.5,278.3c-0.2,0-0.3,0-0.5,0c-1.2,0-2.1,1-2.1,2.4v4H295v-7.1h0.9v1.4h0c0.3-0.8,1.1-1.6,2.2-1.6c0.2,0,0.3,0,0.5,0
			V278.3z"/>
		<path d="M300.8,275.9h-0.9v-1.5h0.9V275.9z M300.8,284.7h-0.9v-7.1h0.9V284.7z"/>
		<path d="M308.2,279.6v3.6c0,0.7,0.2,0.9,0.6,0.9c0.2,0,0.3,0,0.4-0.1v0.6c-0.1,0-0.4,0.1-0.7,0.1c-0.7,0-1.1-0.2-1.2-1.2h0
			c-0.3,0.6-1.1,1.2-2.4,1.2c-1.4,0-2.4-0.7-2.4-2c0-1.4,1.3-1.9,3-2.2l0.8-0.1c0.8-0.2,1-0.3,1-0.8v-0.1c0-0.9-0.5-1.5-1.8-1.5
			c-1.3,0-1.8,0.7-1.8,1.7l-0.9-0.1c0-1.4,1.1-2.3,2.8-2.3C307,277.4,308.2,277.8,308.2,279.6z M307.3,282.1v-1.4
			c-0.1,0.1-0.3,0.2-0.6,0.2l-1.7,0.4c-1,0.2-1.5,0.5-1.5,1.4c0,0.9,0.7,1.4,1.7,1.4C306.3,284.1,307.3,283.4,307.3,282.1z"/>
		<path d="M311.4,284.7h-0.9v-10.2h0.9V284.7z"/>
		<path d="M317.8,279c-0.4-0.5-1-0.9-1.9-0.9c-0.9,0-1.6,0.4-1.6,1.1c0,0.8,0.5,1,1.4,1.2l0.9,0.2c1.2,0.3,2.1,0.7,2.1,2
			c0,1.4-1.2,2.1-2.7,2.1c-1.5,0-2.5-0.7-3-1.5l0.7-0.5c0.5,0.7,1.2,1.2,2.3,1.2c1.2,0,1.8-0.6,1.8-1.3c0-0.8-0.6-1-1.5-1.2l-1-0.2
			c-1.3-0.3-2-0.8-2-2c0-1.3,1.2-2,2.5-2c1.2,0,2.1,0.5,2.6,1.1L317.8,279z"/>
		<path d="M269.9,304.1c-1.3-2-1.9-4.1-1.9-6.3c0-2.1,0.6-4.3,1.9-6.3l0.8,0.1c-1.1,1.9-1.7,4-1.7,6.2c0,2.1,0.6,4.3,1.7,6.2
			L269.9,304.1z"/>
		<path d="M277.9,301.7H277v-3.8c0-1.1-0.1-1.8-0.5-2.2c-0.3-0.3-0.7-0.5-1.3-0.5c-0.7,0-1.2,0.2-1.5,0.6c-0.4,0.4-0.6,1.1-0.6,1.7
			v4.2h-0.9v-7.1h0.9v1.2h0c0.3-0.7,1.1-1.3,2.3-1.3c0.7,0,1.4,0.2,1.8,0.7c0.5,0.5,0.6,1,0.6,2.6V301.7z"/>
		<path d="M290.6,295.6h-7.3v-0.9h7.3V295.6z M290.6,298.2h-7.3v-0.8h7.3V298.2z"/>
		<path d="M296,296c-0.3-0.5-0.3-1.1-0.3-1.6c0-1.7,1.2-3.1,3.3-3.1c2.2,0,3.3,1.5,3.3,3.3c0,2.1-1.5,3.5-2.9,4.6
			c-0.9,0.8-1.9,1.4-2.2,1.6h5.2v0.8h-6.5v-0.8c0.8-0.5,2.2-1.6,3.5-2.7c1.1-1,2-1.9,2-3.5c0-1.6-1.1-2.5-2.4-2.5
			c-1.5,0-2.3,1.1-2.3,2.3c0,0.8,0.3,1.5,0.5,1.8L296,296z"/>
		<path d="M310.4,292.2c-0.9,1.4-1.6,2.7-2.2,4.1c-0.6,1.5-1.1,3.3-1.3,5.3h-1c0.2-1.9,0.7-3.7,1.4-5.4c0.6-1.3,1.3-2.6,2.1-3.9
			h-4.9v2.3h-0.9v-3.1h6.8V292.2z"/>
		<path d="M311.1,303.9c1.1-1.9,1.7-4.1,1.7-6.2c0-2.1-0.6-4.3-1.7-6.2l0.8-0.1c1.3,2,1.9,4.2,1.9,6.3c0,2.2-0.6,4.3-1.9,6.3
			L311.1,303.9z"/>
	</g>
	<g>
		<path d="M388.5,267.7H388l-2.5-6c-0.4-1-0.9-2.5-1-3h0c0.1,0.5,0.1,2.6,0.1,3.4v5.5h-0.9v-10.2h1.1l3,7.2c0.3,0.7,0.5,1.2,0.6,1.6
			h0c0.1-0.4,0.2-0.8,0.5-1.5l2.8-7.2h1.2v10.2h-0.9v-5.2c0-0.9,0.1-3.5,0.1-4h0c-0.1,0.4-0.6,2-1,3L388.5,267.7z"/>
		<path d="M401.2,265.9c-0.4,0.8-1.3,1.9-3.1,1.9c-2,0-3.3-1.4-3.3-3.8c0-2.2,1.3-3.7,3.2-3.7c2.1,0,3.1,1.6,3.1,3.7v0.1h-5.4v0.1
			c0,1.9,1.1,2.8,2.4,2.8c1.4,0,2.1-0.9,2.4-1.6L401.2,265.9z M395.7,263.5h4.4c0-1.1-0.8-2.3-2.2-2.3
			C396.7,261.1,395.8,262,395.7,263.5z"/>
		<path d="M402.5,264.1c0-2.4,1.2-3.8,3-3.8c1.1,0,2,0.6,2.3,1.4v-4.3h0.9v10.2h-0.9v-1.3c-0.4,0.8-1.2,1.5-2.4,1.5
			C403.7,267.8,402.5,266.5,402.5,264.1z M405.7,261.1c-1.4,0-2.2,1-2.2,3c0,1.9,0.8,3,2.2,3c1.4,0,2.2-1,2.2-3
			C407.9,262.1,407,261.1,405.7,261.1z"/>
		<path d="M411.9,258.9H411v-1.5h0.9V258.9z M411.9,267.7H411v-7.1h0.9V267.7z"/>
		<path d="M419,262.7c-0.4-1-1-1.6-2-1.6c-1.4,0-2.3,1.1-2.3,3c0,1.9,0.9,3,2.3,3c1,0,1.6-0.5,2.1-1.4l0.7,0.4
			c-0.5,1-1.4,1.7-2.8,1.7c-2,0-3.2-1.4-3.2-3.7c0-2.3,1.3-3.8,3.2-3.8c1.4,0,2.3,0.7,2.8,1.9L419,262.7z"/>
		<path d="M426.5,262.6v3.6c0,0.7,0.2,0.9,0.6,0.9c0.2,0,0.3,0,0.4-0.1v0.6c-0.1,0-0.4,0.1-0.7,0.1c-0.7,0-1.1-0.2-1.2-1.2h0
			c-0.3,0.6-1.1,1.2-2.4,1.2c-1.4,0-2.4-0.7-2.4-2c0-1.4,1.3-1.9,3-2.2l0.8-0.1c0.8-0.2,1-0.3,1-0.8v-0.1c0-0.9-0.5-1.5-1.8-1.5
			c-1.3,0-1.8,0.7-1.8,1.7l-0.9-0.1c0-1.4,1.1-2.3,2.8-2.3C425.3,260.4,426.5,260.8,426.5,262.6z M425.6,265.1v-1.4
			c-0.1,0.1-0.3,0.2-0.6,0.2l-1.7,0.4c-1,0.2-1.5,0.5-1.5,1.4c0,0.9,0.7,1.4,1.7,1.4C424.6,267.1,425.6,266.4,425.6,265.1z"/>
		<path d="M429.6,267.7h-0.9v-10.2h0.9V267.7z"/>
		<path d="M383.6,281.1c0-2.4,1.2-3.8,3-3.8c1.1,0,2,0.6,2.3,1.4v-4.3h0.9v10.2h-0.9v-1.3c-0.4,0.8-1.2,1.5-2.4,1.5
			C384.8,284.8,383.6,283.5,383.6,281.1z M386.8,278.1c-1.4,0-2.2,1-2.2,3c0,1.9,0.8,3,2.2,3c1.4,0,2.2-1,2.2-3
			C388.9,279.1,388.1,278.1,386.8,278.1z"/>
		<path d="M398.1,282.9c-0.4,0.8-1.3,1.9-3.1,1.9c-2,0-3.3-1.4-3.3-3.8c0-2.2,1.3-3.7,3.2-3.7c2.1,0,3.1,1.6,3.1,3.7v0.1h-5.4v0.1
			c0,1.9,1.1,2.8,2.4,2.8c1.4,0,2.1-0.9,2.4-1.6L398.1,282.9z M392.6,280.5h4.4c0-1.1-0.8-2.3-2.2-2.3
			C393.6,278.1,392.7,279,392.6,280.5z"/>
		<path d="M402.3,284.7h-0.8l-2.5-7.1h0.9l1.6,4.7l0.4,1.2h0c0-0.1,0.2-0.6,0.5-1.2l1.8-4.6h0.9L402.3,284.7z"/>
		<path d="M407.4,275.9h-0.9v-1.5h0.9V275.9z M407.4,284.7h-0.9v-7.1h0.9V284.7z"/>
		<path d="M414.5,279.7c-0.4-1-1-1.6-2-1.6c-1.4,0-2.3,1.1-2.3,3c0,1.9,0.9,3,2.3,3c1,0,1.6-0.5,2.1-1.4l0.7,0.4
			c-0.5,1-1.4,1.7-2.8,1.7c-2,0-3.2-1.4-3.2-3.7c0-2.3,1.3-3.8,3.2-3.8c1.4,0,2.3,0.7,2.8,1.9L414.5,279.7z"/>
		<path d="M422.8,282.9c-0.4,0.8-1.3,1.9-3.1,1.9c-2,0-3.3-1.4-3.3-3.8c0-2.2,1.3-3.7,3.2-3.7c2.1,0,3.1,1.6,3.1,3.7v0.1h-5.4v0.1
			c0,1.9,1.1,2.8,2.4,2.8c1.4,0,2.1-0.9,2.4-1.6L422.8,282.9z M417.4,280.5h4.4c0-1.1-0.8-2.3-2.2-2.3
			C418.4,278.1,417.5,279,417.4,280.5z"/>
		<path d="M428.7,279c-0.4-0.5-1-0.9-1.9-0.9c-0.9,0-1.6,0.4-1.6,1.1c0,0.8,0.5,1,1.4,1.2l0.9,0.2c1.2,0.3,2.1,0.7,2.1,2
			c0,1.4-1.2,2.1-2.7,2.1c-1.5,0-2.5-0.7-3-1.5l0.7-0.5c0.5,0.7,1.2,1.2,2.3,1.2c1.2,0,1.8-0.6,1.8-1.3c0-0.8-0.6-1-1.5-1.2l-1-0.2
			c-1.3-0.3-2-0.8-2-2c0-1.3,1.2-2,2.5-2c1.2,0,2.1,0.5,2.6,1.1L428.7,279z"/>
		<path d="M386.6,304.1c-1.3-2-1.9-4.1-1.9-6.3c0-2.1,0.6-4.3,1.9-6.3l0.8,0.1c-1.1,1.9-1.7,4-1.7,6.2c0,2.1,0.6,4.3,1.7,6.2
			L386.6,304.1z"/>
		<path d="M394.5,301.7h-0.9v-3.8c0-1.1-0.1-1.8-0.5-2.2c-0.3-0.3-0.7-0.5-1.3-0.5c-0.7,0-1.2,0.2-1.5,0.6c-0.4,0.4-0.6,1.1-0.6,1.7
			v4.2H389v-7.1h0.9v1.2h0c0.3-0.7,1.1-1.3,2.3-1.3c0.7,0,1.4,0.2,1.8,0.7c0.5,0.5,0.6,1,0.6,2.6V301.7z"/>
		<path d="M407.3,295.6h-7.3v-0.9h7.3V295.6z M407.3,298.2h-7.3v-0.8h7.3V298.2z"/>
		<path d="M414.6,301.7v-7.8c-0.5,0.5-1.4,0.6-2.2,0.6c-0.2,0-0.3,0-0.5,0v-0.8h0.2c0.8,0,1.3-0.2,1.7-0.4c0.5-0.4,0.8-1,0.8-1.7
			h0.8v10.2H414.6z"/>
		<path d="M418.6,299.1c0.1,0.5,0.5,1.9,2.1,1.9c1.8,0,2.7-1.7,2.8-4.2c-0.5,0.8-1.5,1.4-2.8,1.4c-1.7,0-3.2-1.2-3.2-3.3
			c0-1.9,1.2-3.6,3.4-3.6c2.1,0,3.7,1.6,3.7,5.2c0,3.3-1.3,5.3-3.8,5.3c-2.1,0-2.8-1.5-3-2.4L418.6,299.1z M420.9,292.1
			c-1.3,0-2.4,1-2.4,2.7c0,1.7,1.1,2.6,2.4,2.6c1.3,0,2.3-0.9,2.6-1.6C423.4,293.5,422.5,292.1,420.9,292.1z"/>
		<path d="M425.8,303.9c1.1-1.9,1.7-4.1,1.7-6.2c0-2.1-0.6-4.3-1.7-6.2l0.8-0.1c1.3,2,1.9,4.2,1.9,6.3c0,2.2-0.6,4.3-1.9,6.3
			L425.8,303.9z"/>
	</g>
	<g>
		<path d="M482.7,267.7h-0.6l-2.5-6c-0.4-1-0.9-2.5-1-3h0c0.1,0.5,0.1,2.6,0.1,3.4v5.5h-0.9v-10.2h1.1l3,7.2
			c0.3,0.7,0.5,1.2,0.6,1.6h0c0.1-0.4,0.2-0.8,0.5-1.5l2.8-7.2h1.2v10.2H486v-5.2c0-0.9,0.1-3.5,0.1-4h0c-0.1,0.4-0.6,2-1,3
			L482.7,267.7z"/>
		<path d="M494.5,262.6v3.6c0,0.7,0.2,0.9,0.6,0.9c0.2,0,0.3,0,0.4-0.1v0.6c-0.1,0-0.4,0.1-0.7,0.1c-0.7,0-1.1-0.2-1.2-1.2h0
			c-0.3,0.6-1.1,1.2-2.4,1.2c-1.4,0-2.4-0.7-2.4-2c0-1.4,1.3-1.9,3-2.2l0.8-0.1c0.8-0.2,1-0.3,1-0.8v-0.1c0-0.9-0.5-1.5-1.8-1.5
			c-1.3,0-1.8,0.7-1.8,1.7l-0.9-0.1c0-1.4,1.1-2.3,2.8-2.3C493.3,260.4,494.5,260.8,494.5,262.6z M493.6,265.1v-1.4
			c-0.1,0.1-0.3,0.2-0.6,0.2l-1.7,0.4c-1,0.2-1.5,0.5-1.5,1.4c0,0.9,0.7,1.4,1.7,1.4C492.6,267.1,493.6,266.4,493.6,265.1z"/>
		<path d="M501.5,262.7c-0.4-1-1-1.6-2-1.6c-1.4,0-2.3,1.1-2.3,3c0,1.9,0.9,3,2.3,3c1,0,1.6-0.5,2.1-1.4l0.7,0.4
			c-0.5,1-1.4,1.7-2.8,1.7c-2,0-3.2-1.4-3.2-3.7c0-2.3,1.3-3.8,3.2-3.8c1.4,0,2.3,0.7,2.8,1.9L501.5,262.7z"/>
		<path d="M509.5,267.7h-0.9v-3.8c0-1.1-0.1-1.8-0.5-2.2c-0.3-0.3-0.7-0.5-1.3-0.5c-0.6,0-1.1,0.2-1.5,0.6c-0.4,0.4-0.6,1.1-0.6,1.7
			v4.2h-0.9v-10.2h0.9v4.2c0.3-0.7,1.1-1.3,2.3-1.3c0.7,0,1.3,0.2,1.8,0.7c0.5,0.5,0.6,1,0.6,2.6V267.7z"/>
		<path d="M512.6,258.9h-0.9v-1.5h0.9V258.9z M512.6,267.7h-0.9v-7.1h0.9V267.7z"/>
		<path d="M520.5,267.7h-0.9v-3.8c0-1.1-0.1-1.8-0.5-2.2c-0.3-0.3-0.7-0.5-1.3-0.5c-0.7,0-1.2,0.2-1.5,0.6c-0.4,0.4-0.6,1.1-0.6,1.7
			v4.2H515v-7.1h0.9v1.2h0c0.3-0.7,1.1-1.3,2.3-1.3c0.7,0,1.4,0.2,1.8,0.7c0.5,0.5,0.6,1,0.6,2.6V267.7z"/>
		<path d="M528.7,265.9c-0.4,0.8-1.3,1.9-3.1,1.9c-2,0-3.3-1.4-3.3-3.8c0-2.2,1.3-3.7,3.2-3.7c2.1,0,3.1,1.6,3.1,3.7v0.1h-5.4v0.1
			c0,1.9,1.1,2.8,2.4,2.8c1.4,0,2.1-0.9,2.4-1.6L528.7,265.9z M523.2,263.5h4.4c0-1.1-0.8-2.3-2.2-2.3
			C524.2,261.1,523.4,262,523.2,263.5z"/>
		<path d="M534,261.3c-0.2,0-0.3,0-0.5,0c-1.2,0-2.1,1-2.1,2.4v4h-0.9v-7.1h0.9v1.4h0c0.3-0.8,1.1-1.6,2.2-1.6c0.2,0,0.3,0,0.5,0
			V261.3z"/>
		<path d="M537,264.2c0.3,0.9,0.6,1.8,0.8,2.4h0c0.3-0.8,0.5-1.5,0.9-2.4l1.4-3.6h0.9l-3.2,8.1c-0.2,0.5-0.4,1-0.6,1.3
			c-0.3,0.5-0.6,0.7-1.3,0.7c-0.4,0-0.7-0.1-0.9-0.1v-0.9c0.3,0.1,0.6,0.2,0.9,0.2c0.3,0,0.5-0.1,0.6-0.3c0.1-0.2,0.2-0.4,0.4-0.8
			l0.4-1l-2.5-7.1h1L537,264.2z"/>
		<path d="M550.9,262.6v3.6c0,0.7,0.2,0.9,0.6,0.9c0.2,0,0.3,0,0.4-0.1v0.6c-0.1,0-0.4,0.1-0.7,0.1c-0.7,0-1.1-0.2-1.2-1.2h0
			c-0.3,0.6-1.1,1.2-2.4,1.2c-1.4,0-2.4-0.7-2.4-2c0-1.4,1.3-1.9,3-2.2l0.8-0.1c0.8-0.2,1-0.3,1-0.8v-0.1c0-0.9-0.5-1.5-1.8-1.5
			c-1.3,0-1.8,0.7-1.8,1.7l-0.9-0.1c0-1.4,1.1-2.3,2.8-2.3C549.8,260.4,550.9,260.8,550.9,262.6z M550.1,265.1v-1.4
			c-0.1,0.1-0.3,0.2-0.6,0.2l-1.7,0.4c-1,0.2-1.5,0.5-1.5,1.4c0,0.9,0.7,1.4,1.7,1.4C549.1,267.1,550.1,266.4,550.1,265.1z"/>
		<path d="M558.8,267.7h-0.9v-3.8c0-1.1-0.1-1.8-0.5-2.2c-0.3-0.3-0.7-0.5-1.3-0.5c-0.7,0-1.2,0.2-1.5,0.6c-0.4,0.4-0.6,1.1-0.6,1.7
			v4.2h-0.9v-7.1h0.9v1.2h0c0.3-0.7,1.1-1.3,2.3-1.3c0.7,0,1.4,0.2,1.8,0.7c0.5,0.5,0.6,1,0.6,2.6V267.7z"/>
		<path d="M560.6,264.1c0-2.4,1.2-3.8,3-3.8c1.1,0,2,0.6,2.3,1.4v-4.3h0.9v10.2h-0.9v-1.3c-0.4,0.8-1.2,1.5-2.4,1.5
			C561.8,267.8,560.6,266.5,560.6,264.1z M563.7,261.1c-1.4,0-2.2,1-2.2,3c0,1.9,0.8,3,2.2,3c1.4,0,2.2-1,2.2-3
			C565.9,262.1,565.1,261.1,563.7,261.1z"/>
		<path d="M472.6,278.2h-1.6v6.5h-0.9v-6.5h-1.6v-0.7h1.6v-1.6c0-0.6,0.1-0.9,0.3-1.2c0.3-0.3,0.7-0.5,1.3-0.5
			c0.4,0,0.7,0.1,0.9,0.1v0.8c-0.2-0.1-0.6-0.2-0.9-0.2c-0.3,0-0.4,0.1-0.5,0.2c-0.2,0.2-0.2,0.4-0.2,0.8v1.5h1.6V278.2z"/>
		<path d="M479,279.6v3.6c0,0.7,0.2,0.9,0.6,0.9c0.2,0,0.3,0,0.4-0.1v0.6c-0.1,0-0.4,0.1-0.7,0.1c-0.7,0-1.1-0.2-1.2-1.2h0
			c-0.3,0.6-1.1,1.2-2.4,1.2c-1.4,0-2.4-0.7-2.4-2c0-1.4,1.3-1.9,3-2.2l0.8-0.1c0.8-0.2,1-0.3,1-0.8v-0.1c0-0.9-0.5-1.5-1.8-1.5
			c-1.3,0-1.8,0.7-1.8,1.7l-0.9-0.1c0-1.4,1.1-2.3,2.8-2.3C477.8,277.4,479,277.8,479,279.6z M478.2,282.1v-1.4
			c-0.1,0.1-0.3,0.2-0.6,0.2l-1.7,0.4c-1,0.2-1.5,0.5-1.5,1.4c0,0.9,0.7,1.4,1.7,1.4C477.1,284.1,478.2,283.4,478.2,282.1z"/>
		<path d="M482.2,283.4v1.3h-0.9v-10.2h0.9v4.3c0.3-0.8,1.2-1.4,2.3-1.4c1.8,0,3,1.4,3,3.8c0,2.4-1.2,3.7-3,3.7
			C483.3,284.8,482.5,284.2,482.2,283.4z M484.4,284.1c1.4,0,2.2-1.1,2.2-3c0-1.9-0.9-3-2.2-3c-1.3,0-2.2,1-2.2,3
			C482.2,283,483,284.1,484.4,284.1z"/>
		<path d="M492.9,278.3c-0.2,0-0.3,0-0.5,0c-1.2,0-2.1,1-2.1,2.4v4h-0.9v-7.1h0.9v1.4h0c0.3-0.8,1.1-1.6,2.2-1.6c0.2,0,0.3,0,0.5,0
			V278.3z"/>
		<path d="M495.3,275.9h-0.9v-1.5h0.9V275.9z M495.3,284.7h-0.9v-7.1h0.9V284.7z"/>
		<path d="M502.4,279.7c-0.4-1-1-1.6-2-1.6c-1.4,0-2.3,1.1-2.3,3c0,1.9,0.9,3,2.3,3c1,0,1.6-0.5,2.1-1.4l0.7,0.4
			c-0.5,1-1.4,1.7-2.8,1.7c-2,0-3.2-1.4-3.2-3.7c0-2.3,1.3-3.8,3.2-3.8c1.4,0,2.3,0.7,2.8,1.9L502.4,279.7z"/>
		<path d="M509.8,279.6v3.6c0,0.7,0.2,0.9,0.6,0.9c0.2,0,0.3,0,0.4-0.1v0.6c-0.1,0-0.4,0.1-0.7,0.1c-0.7,0-1.1-0.2-1.2-1.2h0
			c-0.3,0.6-1.1,1.2-2.4,1.2c-1.4,0-2.4-0.7-2.4-2c0-1.4,1.3-1.9,3-2.2l0.8-0.1c0.8-0.2,1-0.3,1-0.8v-0.1c0-0.9-0.5-1.5-1.8-1.5
			c-1.3,0-1.8,0.7-1.8,1.7l-0.9-0.1c0-1.4,1.1-2.3,2.8-2.3C508.6,277.4,509.8,277.8,509.8,279.6z M508.9,282.1v-1.4
			c-0.1,0.1-0.3,0.2-0.6,0.2l-1.7,0.4c-1,0.2-1.5,0.5-1.5,1.4c0,0.9,0.7,1.4,1.7,1.4C507.9,284.1,508.9,283.4,508.9,282.1z"/>
		<path d="M511.2,277.5h1.4v-2.7l0.9-0.2v2.9h1.7v0.7h-1.7v4.8c0,0.8,0.2,1,0.8,1c0.4,0,0.7-0.1,0.9-0.2v0.8
			c-0.2,0.1-0.7,0.2-1.1,0.2c-0.9,0-1.5-0.3-1.5-1.6v-5h-1.4V277.5z"/>
		<path d="M522.8,282.9c-0.4,0.8-1.3,1.9-3.1,1.9c-2,0-3.3-1.4-3.3-3.8c0-2.2,1.3-3.7,3.2-3.7c2.1,0,3.1,1.6,3.1,3.7v0.1h-5.4v0.1
			c0,1.9,1.1,2.8,2.4,2.8c1.4,0,2.1-0.9,2.4-1.6L522.8,282.9z M517.3,280.5h4.4c0-1.1-0.8-2.3-2.2-2.3
			C518.3,278.1,517.4,279,517.3,280.5z"/>
		<path d="M524.1,281.1c0-2.4,1.2-3.8,3-3.8c1.1,0,2,0.6,2.3,1.4v-4.3h0.9v10.2h-0.9v-1.3c-0.4,0.8-1.2,1.5-2.4,1.5
			C525.3,284.8,524.1,283.5,524.1,281.1z M527.3,278.1c-1.4,0-2.2,1-2.2,3c0,1.9,0.8,3,2.2,3c1.4,0,2.2-1,2.2-3
			C529.5,279.1,528.6,278.1,527.3,278.1z"/>
		<path d="M544.5,280.8c0-1.1,0-1.7-0.3-2.2c-0.2-0.2-0.5-0.5-1-0.5c-1.2,0-1.9,1-1.9,2.7v3.8h-0.9v-3.9c0-1.1,0-1.7-0.3-2.2
			c-0.2-0.2-0.5-0.5-1-0.5c-1.2,0-1.9,1-1.9,2.7v3.8h-0.9v-7.1h0.9v1.2h0c0.3-0.9,1.2-1.4,2.1-1.4c0.9,0,1.8,0.5,1.9,1.5
			c0.3-0.9,1.2-1.5,2.2-1.5c0.5,0,1,0.1,1.4,0.5c0.5,0.5,0.7,1.1,0.7,2.5v4.3h-0.9V280.8z"/>
		<path d="M553.6,282.9c-0.4,0.8-1.3,1.9-3.1,1.9c-2,0-3.3-1.4-3.3-3.8c0-2.2,1.3-3.7,3.2-3.7c2.1,0,3.1,1.6,3.1,3.7v0.1h-5.4v0.1
			c0,1.9,1.1,2.8,2.4,2.8c1.4,0,2.1-0.9,2.4-1.6L553.6,282.9z M548.1,280.5h4.4c0-1.1-0.8-2.3-2.2-2.3
			C549.1,278.1,548.2,279,548.1,280.5z"/>
		<path d="M554.5,277.5h1.4v-2.7l0.9-0.2v2.9h1.7v0.7h-1.7v4.8c0,0.8,0.2,1,0.8,1c0.4,0,0.7-0.1,0.9-0.2v0.8
			c-0.2,0.1-0.7,0.2-1.1,0.2c-0.9,0-1.5-0.3-1.5-1.6v-5h-1.4V277.5z"/>
		<path d="M565.2,279.6v3.6c0,0.7,0.2,0.9,0.6,0.9c0.2,0,0.3,0,0.4-0.1v0.6c-0.1,0-0.4,0.1-0.7,0.1c-0.7,0-1.1-0.2-1.2-1.2h0
			c-0.3,0.6-1.1,1.2-2.4,1.2c-1.4,0-2.4-0.7-2.4-2c0-1.4,1.3-1.9,3-2.2l0.8-0.1c0.8-0.2,1-0.3,1-0.8v-0.1c0-0.9-0.5-1.5-1.8-1.5
			c-1.3,0-1.8,0.7-1.8,1.7l-0.9-0.1c0-1.4,1.1-2.3,2.8-2.3C564,277.4,565.2,277.8,565.2,279.6z M564.3,282.1v-1.4
			c-0.1,0.1-0.3,0.2-0.6,0.2l-1.7,0.4c-1,0.2-1.5,0.5-1.5,1.4c0,0.9,0.7,1.4,1.7,1.4C563.3,284.1,564.3,283.4,564.3,282.1z"/>
		<path d="M568.3,284.7h-0.9v-10.2h0.9V284.7z"/>
		<path d="M574.7,279c-0.4-0.5-1-0.9-1.9-0.9c-0.9,0-1.6,0.4-1.6,1.1c0,0.8,0.5,1,1.4,1.2l0.9,0.2c1.2,0.3,2.1,0.7,2.1,2
			c0,1.4-1.2,2.1-2.7,2.1c-1.5,0-2.5-0.7-3-1.5l0.7-0.5c0.5,0.7,1.2,1.2,2.3,1.2c1.2,0,1.8-0.6,1.8-1.3c0-0.8-0.6-1-1.5-1.2l-1-0.2
			c-1.3-0.3-2-0.8-2-2c0-1.3,1.2-2,2.5-2c1.2,0,2.1,0.5,2.6,1.1L574.7,279z"/>
		<path d="M502.2,304.1c-1.3-2-1.9-4.1-1.9-6.3c0-2.1,0.6-4.3,1.9-6.3l0.8,0.1c-1.1,1.9-1.7,4-1.7,6.2c0,2.1,0.6,4.3,1.7,6.2
			L502.2,304.1z"/>
		<path d="M510.1,301.7h-0.9v-3.8c0-1.1-0.1-1.8-0.5-2.2c-0.3-0.3-0.7-0.5-1.3-0.5c-0.7,0-1.2,0.2-1.5,0.6c-0.4,0.4-0.6,1.1-0.6,1.7
			v4.2h-0.9v-7.1h0.9v1.2h0c0.3-0.7,1.1-1.3,2.3-1.3c0.7,0,1.4,0.2,1.8,0.7c0.5,0.5,0.6,1,0.6,2.6V301.7z"/>
		<path d="M522.9,295.6h-7.3v-0.9h7.3V295.6z M522.9,298.2h-7.3v-0.8h7.3V298.2z"/>
		<path d="M530.2,301.7v-7.8c-0.5,0.5-1.4,0.6-2.2,0.6c-0.1,0-0.3,0-0.5,0v-0.8h0.2c0.8,0,1.4-0.2,1.7-0.4c0.5-0.4,0.8-1,0.8-1.7
			h0.8v10.2H530.2z"/>
		<path d="M540,293.9c0,1.2-0.8,2-1.7,2.3c0.8,0.3,2,1,2,2.6c0,1.5-1.1,3-3.5,3c-2.5,0-3.5-1.5-3.5-3c0-1.6,1.2-2.4,2-2.7
			c-0.9-0.3-1.7-1.1-1.7-2.3c0-1.5,1.2-2.6,3.3-2.6C538.8,291.3,540,292.4,540,293.9z M539.3,298.8c0-1.3-1-2.2-2.5-2.2
			c-1.6,0-2.5,0.9-2.5,2.2c0,1.2,0.9,2.2,2.5,2.2C538.4,301,539.3,300,539.3,298.8z M539,293.9c0-1.1-0.9-1.9-2.3-1.9
			c-1.4,0-2.3,0.8-2.3,1.9c0,1,0.8,1.9,2.3,1.9S539,295,539,293.9z"/>
		<path d="M541.5,303.9c1.1-1.9,1.7-4.1,1.7-6.2c0-2.1-0.6-4.3-1.7-6.2l0.8-0.1c1.3,2,1.9,4.2,1.9,6.3c0,2.2-0.6,4.3-1.9,6.3
			L541.5,303.9z"/>
	</g>
	<g>
		<path d="M641.1,77.7c-0.6-0.8-1.5-1.3-2.7-1.3c-1.4,0-2.4,0.7-2.4,1.8c0,1.1,0.7,1.5,2.1,1.8l1.4,0.3c1.8,0.4,2.8,1,2.8,2.7
			c0,1.7-1.4,3-3.8,3c-2.3,0-3.5-1.2-4-2.3l0.8-0.6c0.4,1,1.5,2,3.2,2c1.8,0,2.7-0.9,2.7-2.1c0-1.1-0.8-1.6-2.2-1.9l-1.3-0.3
			c-1.5-0.3-2.8-0.9-2.8-2.7c0-1.6,1.4-2.7,3.4-2.7c1.8,0,2.8,0.7,3.4,1.5L641.1,77.7z"/>
		<path d="M644.9,77.1H644v-1.5h0.9V77.1z M644.9,85.9H644v-7.1h0.9V85.9z"/>
		<path d="M655.6,82c0-1.1,0-1.7-0.3-2.2c-0.2-0.2-0.5-0.5-1-0.5c-1.2,0-1.9,1-1.9,2.7v3.8h-0.9V82c0-1.1,0-1.7-0.3-2.2
			c-0.2-0.2-0.5-0.5-1-0.5c-1.2,0-1.9,1-1.9,2.7v3.8h-0.9v-7.1h0.9v1.2h0c0.3-0.9,1.2-1.4,2.1-1.4c0.9,0,1.8,0.5,1.9,1.5
			c0.3-0.9,1.2-1.5,2.2-1.5c0.5,0,1,0.1,1.4,0.5c0.5,0.5,0.7,1.1,0.7,2.5v4.3h-0.9V82z"/>
		<path d="M658.6,78.7h0.9v4.1c0,0.9,0.1,1.5,0.5,1.9c0.3,0.3,0.7,0.5,1.3,0.5c1.5,0,2-1.2,2-2.2v-4.2h0.9v7.1h-0.9v-1.2h0
			c-0.3,0.7-1,1.3-2.2,1.3c-0.7,0-1.3-0.2-1.8-0.7c-0.4-0.5-0.6-1.1-0.6-2.2V78.7z"/>
		<path d="M667.4,85.9h-0.9V75.7h0.9V85.9z"/>
		<path d="M674.7,80.8v3.6c0,0.7,0.2,0.9,0.6,0.9c0.2,0,0.3,0,0.4-0.1v0.6c-0.1,0-0.4,0.1-0.7,0.1c-0.7,0-1.1-0.2-1.2-1.2h0
			c-0.3,0.6-1.1,1.2-2.4,1.2c-1.4,0-2.4-0.7-2.4-2c0-1.4,1.3-1.9,3-2.2l0.8-0.1c0.8-0.2,1-0.3,1-0.8v-0.1c0-0.9-0.5-1.5-1.8-1.5
			c-1.3,0-1.8,0.7-1.8,1.7l-0.9-0.1c0-1.4,1.1-2.3,2.8-2.3C673.6,78.6,674.7,79,674.7,80.8z M673.9,83.3V82
			c-0.1,0.1-0.3,0.2-0.6,0.2l-1.7,0.4c-1,0.2-1.5,0.5-1.5,1.4c0,0.9,0.7,1.4,1.7,1.4C672.9,85.3,673.9,84.6,673.9,83.3z"/>
		<path d="M676.1,78.7h1.4V76l0.9-0.2v2.9h1.7v0.7h-1.7v4.8c0,0.8,0.2,1,0.8,1c0.4,0,0.7-0.1,0.9-0.2v0.8c-0.2,0.1-0.7,0.2-1.1,0.2
			c-0.9,0-1.5-0.3-1.5-1.6v-5h-1.4V78.7z"/>
		<path d="M682.7,77.1h-0.9v-1.5h0.9V77.1z M682.7,85.9h-0.9v-7.1h0.9V85.9z"/>
		<path d="M687.8,78.5c2,0,3.2,1.5,3.2,3.8c0,2.2-1.2,3.7-3.2,3.7c-2,0-3.2-1.5-3.2-3.7C684.5,80,685.8,78.5,687.8,78.5z
			 M687.8,85.3c1.4,0,2.3-1.1,2.3-3c0-1.9-0.9-3-2.3-3s-2.3,1.1-2.3,3C685.5,84.2,686.4,85.3,687.8,85.3z"/>
		<path d="M698.4,85.9h-0.9V82c0-1.1-0.1-1.8-0.5-2.2c-0.3-0.3-0.7-0.5-1.3-0.5c-0.7,0-1.2,0.2-1.5,0.6c-0.4,0.4-0.6,1.1-0.6,1.7
			v4.2h-0.9v-7.1h0.9v1.2h0c0.3-0.7,1.1-1.3,2.3-1.3c0.7,0,1.4,0.2,1.8,0.7c0.5,0.5,0.6,1,0.6,2.6V85.9z"/>
		<path d="M704.1,78.7h0.9v4.1c0,0.9,0.1,1.5,0.5,1.9c0.3,0.3,0.7,0.5,1.3,0.5c1.5,0,2-1.2,2-2.2v-4.2h0.9v7.1h-0.9v-1.2h0
			c-0.3,0.7-1,1.3-2.2,1.3c-0.7,0-1.4-0.2-1.8-0.7c-0.4-0.5-0.6-1.1-0.6-2.2V78.7z"/>
		<path d="M716,80.2c-0.4-0.5-1-0.9-1.9-0.9c-0.9,0-1.6,0.4-1.6,1.1c0,0.8,0.5,1,1.4,1.2l0.9,0.2c1.2,0.3,2.1,0.7,2.1,2
			c0,1.4-1.2,2.1-2.7,2.1c-1.5,0-2.5-0.7-3-1.5l0.7-0.5c0.5,0.7,1.2,1.2,2.3,1.2c1.2,0,1.8-0.6,1.8-1.3c0-0.8-0.6-1-1.5-1.2l-1-0.2
			c-1.3-0.3-2-0.8-2-2c0-1.3,1.2-2,2.5-2c1.2,0,2.1,0.5,2.6,1.1L716,80.2z"/>
		<path d="M724.6,84.1c-0.4,0.8-1.3,1.9-3.1,1.9c-2,0-3.3-1.4-3.3-3.8c0-2.2,1.3-3.7,3.2-3.7c2.1,0,3.1,1.6,3.1,3.7v0.1h-5.4v0.1
			c0,1.9,1.1,2.8,2.4,2.8c1.4,0,2.1-0.9,2.4-1.6L724.6,84.1z M719.2,81.7h4.4c0-1.1-0.8-2.3-2.2-2.3
			C720.2,79.3,719.3,80.2,719.2,81.7z"/>
		<path d="M730,79.5c-0.2,0-0.3,0-0.5,0c-1.2,0-2.1,1-2.1,2.4v4h-0.9v-7.1h0.9v1.4h0c0.3-0.8,1.1-1.6,2.2-1.6c0.2,0,0.3,0,0.5,0
			V79.5z"/>
		<path d="M735.5,80.2c-0.4-0.5-1-0.9-1.9-0.9c-0.9,0-1.6,0.4-1.6,1.1c0,0.8,0.5,1,1.4,1.2l0.9,0.2c1.2,0.3,2.1,0.7,2.1,2
			c0,1.4-1.2,2.1-2.7,2.1c-1.5,0-2.5-0.7-3-1.5l0.7-0.5c0.5,0.7,1.2,1.2,2.3,1.2c1.2,0,1.8-0.6,1.8-1.3c0-0.8-0.6-1-1.5-1.2l-1-0.2
			c-1.3-0.3-2-0.8-2-2c0-1.3,1.2-2,2.5-2c1.2,0,2.1,0.5,2.6,1.1L735.5,80.2z"/>
		<path d="M641,100c0.2,0.6,0.4,1.3,0.4,1.6h0c0.1-0.3,0.3-0.9,0.5-1.6l1.2-4.2h0.9l-2.1,7.1H641l-1.4-4.7c-0.2-0.6-0.3-1.1-0.4-1.3
			h0c0,0.2-0.2,0.7-0.4,1.3l-1.4,4.7h-0.8l-2.2-7.1h0.9l1.3,4.2c0.2,0.6,0.4,1.3,0.5,1.6h0c0.1-0.3,0.3-1,0.5-1.6l1.3-4.2h0.8
			L641,100z"/>
		<path d="M646.4,94.1h-0.9v-1.5h0.9V94.1z M646.4,102.9h-0.9v-7.1h0.9V102.9z"/>
		<path d="M647.8,95.7h1.4V93l0.9-0.2v2.9h1.7v0.7h-1.7v4.8c0,0.8,0.2,1,0.8,1c0.4,0,0.7-0.1,0.9-0.2v0.8c-0.2,0.1-0.7,0.2-1.1,0.2
			c-0.9,0-1.5-0.3-1.5-1.6v-5h-1.4V95.7z"/>
		<path d="M659.1,102.9h-0.9V99c0-1.1-0.1-1.8-0.5-2.2c-0.3-0.3-0.7-0.5-1.3-0.5c-0.6,0-1.1,0.2-1.5,0.6c-0.4,0.4-0.6,1.1-0.6,1.7
			v4.2h-0.9V92.7h0.9v4.2c0.3-0.7,1-1.3,2.3-1.3c0.7,0,1.4,0.2,1.8,0.7c0.4,0.5,0.6,1,0.6,2.6V102.9z"/>
		<path d="M662.2,94.1h-0.9v-1.5h0.9V94.1z M662.2,102.9h-0.9v-7.1h0.9V102.9z"/>
		<path d="M670.1,102.9h-0.9V99c0-1.1-0.1-1.8-0.5-2.2c-0.3-0.3-0.7-0.5-1.3-0.5c-0.7,0-1.2,0.2-1.5,0.6c-0.4,0.4-0.6,1.1-0.6,1.7
			v4.2h-0.9v-7.1h0.9v1.2h0c0.3-0.7,1.1-1.3,2.3-1.3c0.7,0,1.4,0.2,1.8,0.7c0.5,0.5,0.6,1,0.6,2.6V102.9z"/>
		<path d="M680.9,97.8v3.6c0,0.7,0.2,0.9,0.6,0.9c0.2,0,0.3,0,0.4-0.1v0.6c-0.1,0-0.4,0.1-0.7,0.1c-0.7,0-1.1-0.2-1.2-1.2h0
			c-0.3,0.6-1.1,1.2-2.4,1.2c-1.4,0-2.4-0.7-2.4-2c0-1.4,1.3-1.9,3-2.2l0.8-0.1c0.8-0.2,1-0.3,1-0.8v-0.1c0-0.9-0.5-1.5-1.8-1.5
			c-1.3,0-1.8,0.7-1.8,1.7l-0.9-0.1c0-1.4,1.1-2.3,2.8-2.3C679.8,95.6,680.9,96,680.9,97.8z M680.1,100.3V99
			c-0.1,0.1-0.3,0.2-0.6,0.2l-1.7,0.4c-1,0.2-1.5,0.5-1.5,1.4c0,0.9,0.7,1.4,1.7,1.4C679.1,102.3,680.1,101.6,680.1,100.3z"/>
		<path d="M683.1,95.7h0.9v4.1c0,0.9,0.1,1.5,0.5,1.9c0.3,0.3,0.7,0.5,1.3,0.5c1.5,0,2-1.2,2-2.2v-4.2h0.9v7.1h-0.9v-1.2h0
			c-0.3,0.7-1,1.3-2.2,1.3c-0.7,0-1.4-0.2-1.8-0.7c-0.4-0.5-0.6-1.1-0.6-2.2V95.7z"/>
		<path d="M690.1,95.7h1.4V93l0.9-0.2v2.9h1.7v0.7h-1.7v4.8c0,0.8,0.2,1,0.8,1c0.4,0,0.7-0.1,0.9-0.2v0.8c-0.2,0.1-0.7,0.2-1.1,0.2
			c-0.9,0-1.5-0.3-1.5-1.6v-5h-1.4V95.7z"/>
		<path d="M698.5,95.5c2,0,3.2,1.5,3.2,3.8c0,2.2-1.2,3.7-3.2,3.7c-2,0-3.2-1.5-3.2-3.7C695.3,97,696.5,95.5,698.5,95.5z
			 M698.5,102.3c1.4,0,2.3-1.1,2.3-3c0-1.9-0.9-3-2.3-3s-2.3,1.1-2.3,3C696.2,101.2,697.1,102.3,698.5,102.3z"/>
		<path d="M711.9,99c0-1.1,0-1.7-0.3-2.2c-0.2-0.2-0.5-0.5-1-0.5c-1.2,0-1.9,1-1.9,2.7v3.8h-0.9V99c0-1.1,0-1.7-0.3-2.2
			c-0.2-0.2-0.5-0.5-1-0.5c-1.2,0-1.9,1-1.9,2.7v3.8h-0.9v-7.1h0.9v1.2h0c0.3-0.9,1.2-1.4,2.1-1.4c0.9,0,1.8,0.5,1.9,1.5
			c0.3-0.9,1.2-1.5,2.2-1.5c0.5,0,1,0.1,1.4,0.5c0.5,0.5,0.7,1.1,0.7,2.5v4.3h-0.9V99z"/>
		<path d="M717.8,95.5c2,0,3.2,1.5,3.2,3.8c0,2.2-1.2,3.7-3.2,3.7c-2,0-3.2-1.5-3.2-3.7C714.6,97,715.8,95.5,717.8,95.5z
			 M717.8,102.3c1.4,0,2.3-1.1,2.3-3c0-1.9-0.9-3-2.3-3s-2.3,1.1-2.3,3C715.5,101.2,716.4,102.3,717.8,102.3z"/>
		<path d="M722,95.7h1.4V93l0.9-0.2v2.9h1.7v0.7h-1.7v4.8c0,0.8,0.2,1,0.8,1c0.4,0,0.7-0.1,0.9-0.2v0.8c-0.2,0.1-0.7,0.2-1.1,0.2
			c-0.9,0-1.5-0.3-1.5-1.6v-5H722V95.7z"/>
		<path d="M728.6,94.1h-0.9v-1.5h0.9V94.1z M728.6,102.9h-0.9v-7.1h0.9V102.9z"/>
		<path d="M733.4,102.9h-0.8l-2.5-7.1h0.9l1.6,4.7l0.4,1.2h0c0-0.1,0.2-0.6,0.4-1.2l1.8-4.6h0.9L733.4,102.9z"/>
		<path d="M743.5,101.1c-0.4,0.8-1.3,1.9-3.1,1.9c-2,0-3.3-1.4-3.3-3.8c0-2.2,1.3-3.7,3.2-3.7c2.1,0,3.1,1.6,3.1,3.7v0.1H738v0.1
			c0,1.9,1.1,2.8,2.4,2.8c1.4,0,2.1-0.9,2.4-1.6L743.5,101.1z M738,98.7h4.4c0-1.1-0.8-2.3-2.2-2.3C739,96.3,738.2,97.2,738,98.7z"
			/>
		<path d="M753.9,97.8v3.6c0,0.7,0.2,0.9,0.6,0.9c0.2,0,0.3,0,0.4-0.1v0.6c-0.1,0-0.4,0.1-0.7,0.1c-0.7,0-1.1-0.2-1.2-1.2h0
			c-0.3,0.6-1.1,1.2-2.4,1.2c-1.4,0-2.4-0.7-2.4-2c0-1.4,1.3-1.9,3-2.2l0.8-0.1c0.8-0.2,1-0.3,1-0.8v-0.1c0-0.9-0.5-1.5-1.8-1.5
			c-1.3,0-1.8,0.7-1.8,1.7l-0.9-0.1c0-1.4,1.1-2.3,2.8-2.3C752.7,95.6,753.9,96,753.9,97.8z M753,100.3V99c-0.1,0.1-0.3,0.2-0.6,0.2
			l-1.7,0.4c-1,0.2-1.5,0.5-1.5,1.4c0,0.9,0.7,1.4,1.7,1.4C752,102.3,753,101.6,753,100.3z"/>
		<path d="M759.7,96.5c-0.2,0-0.3,0-0.5,0c-1.2,0-2.1,1-2.1,2.4v4h-0.9v-7.1h0.9v1.4h0c0.3-0.8,1.1-1.6,2.2-1.6c0.2,0,0.3,0,0.5,0
			V96.5z"/>
		<path d="M767.1,101.1c-0.4,0.8-1.3,1.9-3.1,1.9c-2,0-3.3-1.4-3.3-3.8c0-2.2,1.3-3.7,3.2-3.7c2.1,0,3.1,1.6,3.1,3.7v0.1h-5.4v0.1
			c0,1.9,1.1,2.8,2.4,2.8c1.4,0,2.1-0.9,2.4-1.6L767.1,101.1z M761.6,98.7h4.4c0-1.1-0.8-2.3-2.2-2.3
			C762.6,96.3,761.7,97.2,761.6,98.7z"/>
	</g>
	<g>
		<path d="M636.7,120.1h-1.4V119c2.5-0.8,4.4-1.8,6.9-3.4h0.2V135c0,0.5,1.2,1.8,1.7,1.8h1.1v1.1h-9.8v-1.1h1.1
			c0.4,0,1.7-1.3,1.7-1.8v-13.4C638.1,121.1,637.1,120.1,636.7,120.1z"/>
		<path d="M650.2,133.3c1.4,0,2.3,1,2.3,2.3s-1,2.3-2.3,2.3c-1.4,0-2.3-1-2.3-2.3S648.8,133.3,650.2,133.3z"/>
		<path d="M667.6,117.3c-5,0-8,4.2-8.3,8.5c1.1-1.6,2.6-2.6,5.1-2.6c4.1,0,6.7,3.7,6.7,7.3c0,4.4-2.6,7.9-7,7.9
			c-6,0-8.7-5.7-8.7-10.6c0-6.8,4.7-12.3,11.5-12.3c0.5,0,0.9,0,1.4,0.1l0.4,1.8C668.3,117.3,668,117.3,667.6,117.3z M663.8,136.3
			c2.6,0,3.3-2.6,3.3-4.7c0-2.9-1.2-6.2-4.1-6.2c-2.5,0-3.4,2.2-3.4,4.5C659.6,133.2,660.7,136.3,663.8,136.3z"/>
		<path d="M674.2,123l1.6-1.6l6.1,6.1l6-6l1.5,1.5l-6,6l6.1,6.1l-1.6,1.6l-6.1-6.1l-6,6l-1.5-1.5l6-6L674.2,123z"/>
	</g>
	<g>
		<path d="M643.6,156.7c0-1.1,0-1.7-0.3-2.2c-0.2-0.2-0.5-0.5-1-0.5c-1.2,0-1.9,1-1.9,2.7v3.8h-0.9v-3.9c0-1.1,0-1.7-0.3-2.2
			c-0.2-0.2-0.5-0.5-1-0.5c-1.2,0-1.9,1-1.9,2.7v3.8h-0.9v-7.1h0.9v1.2h0c0.3-0.9,1.2-1.4,2.1-1.4c0.9,0,1.8,0.5,1.9,1.5
			c0.3-0.9,1.2-1.5,2.2-1.5c0.5,0,1,0.1,1.4,0.5c0.5,0.5,0.7,1.1,0.7,2.5v4.3h-0.9V156.7z"/>
		<path d="M649.5,153.2c2,0,3.2,1.5,3.2,3.8c0,2.2-1.2,3.7-3.2,3.7c-2,0-3.2-1.5-3.2-3.7C646.3,154.7,647.5,153.2,649.5,153.2z
			 M649.5,160c1.4,0,2.3-1.1,2.3-3c0-1.9-0.9-3-2.3-3c-1.4,0-2.3,1.1-2.3,3C647.2,158.9,648.1,160,649.5,160z"/>
		<path d="M658.1,154.2c-0.2,0-0.3,0-0.5,0c-1.2,0-2.1,1-2.1,2.4v4h-0.9v-7.1h0.9v1.4h0c0.3-0.8,1.1-1.6,2.2-1.6c0.2,0,0.3,0,0.5,0
			V154.2z"/>
		<path d="M665.5,158.8c-0.4,0.8-1.3,1.9-3.1,1.9c-2,0-3.3-1.4-3.3-3.8c0-2.2,1.3-3.7,3.2-3.7c2.1,0,3.1,1.6,3.1,3.7v0.1H660v0.1
			c0,1.9,1.1,2.8,2.4,2.8c1.4,0,2.1-0.9,2.4-1.6L665.5,158.8z M660,156.3h4.4c0-1.1-0.8-2.3-2.2-2.3C661,154,660.1,154.9,660,156.3z
			"/>
		<path d="M671.7,160.5h-0.9v-10.2h0.9V160.5z"/>
		<path d="M674.9,151.8H674v-1.5h0.9V151.8z M674.9,160.5H674v-7.1h0.9V160.5z"/>
		<path d="M683.5,160.5h-1.1l-2.6-3.9l-1.7,1.5v2.4h-0.9v-10.2h0.9v6.8l4-3.7h1.2l-2.9,2.6L683.5,160.5z"/>
		<path d="M690.7,158.8c-0.4,0.8-1.3,1.9-3.1,1.9c-2,0-3.3-1.4-3.3-3.8c0-2.2,1.3-3.7,3.2-3.7c2.1,0,3.1,1.6,3.1,3.7v0.1h-5.4v0.1
			c0,1.9,1.1,2.8,2.4,2.8c1.4,0,2.1-0.9,2.4-1.6L690.7,158.8z M685.2,156.3h4.4c0-1.1-0.8-2.3-2.2-2.3
			C686.2,154,685.3,154.9,685.2,156.3z"/>
		<path d="M693.4,160.5h-0.9v-10.2h0.9V160.5z"/>
		<path d="M697.2,157.1c0.3,0.9,0.6,1.8,0.8,2.4h0c0.3-0.8,0.5-1.5,0.9-2.4l1.4-3.6h0.9l-3.2,8.1c-0.2,0.5-0.4,1-0.6,1.3
			c-0.3,0.5-0.6,0.7-1.3,0.7c-0.4,0-0.7-0.1-0.9-0.1v-0.9c0.3,0.1,0.6,0.2,0.9,0.2c0.3,0,0.5-0.1,0.6-0.3c0.1-0.2,0.2-0.4,0.4-0.8
			l0.4-1l-2.5-7.1h1L697.2,157.1z"/>
		<path d="M705.2,153.4h1.4v-2.7l0.9-0.2v2.9h1.7v0.7h-1.7v4.8c0,0.8,0.2,1,0.8,1c0.4,0,0.7-0.1,0.9-0.2v0.8
			c-0.2,0.1-0.7,0.2-1.1,0.2c-0.9,0-1.5-0.3-1.5-1.6v-5h-1.4V153.4z"/>
		<path d="M713.6,153.2c2,0,3.2,1.5,3.2,3.8c0,2.2-1.2,3.7-3.2,3.7c-2,0-3.2-1.5-3.2-3.7C710.4,154.7,711.6,153.2,713.6,153.2z
			 M713.6,160c1.4,0,2.3-1.1,2.3-3c0-1.9-0.9-3-2.3-3c-1.4,0-2.3,1.1-2.3,3C711.3,158.9,712.2,160,713.6,160z"/>
		<path d="M722.2,153.4h0.9v4.1c0,0.9,0.1,1.5,0.5,1.9c0.3,0.3,0.7,0.5,1.3,0.5c1.5,0,2-1.2,2-2.2v-4.2h0.9v7.1h-0.9v-1.2h0
			c-0.3,0.7-1,1.3-2.2,1.3c-0.7,0-1.4-0.2-1.8-0.7c-0.4-0.5-0.6-1.1-0.6-2.2V153.4z"/>
		<path d="M734,154.9c-0.4-0.5-1-0.9-1.9-0.9c-0.9,0-1.6,0.4-1.6,1.1c0,0.8,0.5,1,1.4,1.2l0.9,0.2c1.2,0.3,2.1,0.7,2.1,2
			c0,1.4-1.2,2.1-2.7,2.1c-1.5,0-2.5-0.7-3-1.5l0.7-0.5c0.5,0.7,1.2,1.2,2.3,1.2c1.2,0,1.8-0.6,1.8-1.3c0-0.8-0.6-1-1.5-1.2l-1-0.2
			c-1.3-0.3-2-0.8-2-2c0-1.3,1.2-2,2.5-2c1.2,0,2.1,0.5,2.6,1.1L734,154.9z"/>
		<path d="M742.7,158.8c-0.4,0.8-1.3,1.9-3.1,1.9c-2,0-3.3-1.4-3.3-3.8c0-2.2,1.3-3.7,3.2-3.7c2.1,0,3.1,1.6,3.1,3.7v0.1h-5.4v0.1
			c0,1.9,1.1,2.8,2.4,2.8c1.4,0,2.1-0.9,2.4-1.6L742.7,158.8z M737.2,156.3h4.4c0-1.1-0.8-2.3-2.2-2.3
			C738.2,154,737.3,154.9,737.2,156.3z"/>
		<path d="M748,160.5h-1l4-10.2h1l3.9,10.2h-1.1l-1.2-3.1h-4.5L748,160.5z M751.8,152.7c-0.2-0.6-0.3-0.9-0.5-1.2h0
			c-0.1,0.4-0.2,0.6-0.5,1.3l-1.5,3.9h3.8L751.8,152.7z"/>
		<path d="M758.2,160.5h-0.9v-10.2h0.9V160.5z"/>
		<path d="M766.2,150.3l-5.4,10.2h-0.9l5.4-10.2H766.2z"/>
		<path d="M772.7,160.5h-0.6l-2.5-6c-0.4-1-0.9-2.5-1-3h0c0.1,0.5,0.1,2.6,0.1,3.4v5.5h-0.9v-10.2h1.1l3,7.2
			c0.3,0.7,0.5,1.2,0.6,1.6h0c0.1-0.4,0.2-0.8,0.5-1.5l2.8-7.2h1.2v10.2H776v-5.2c0-0.9,0.1-3.5,0.1-4h0c-0.1,0.4-0.6,2-1,3
			L772.7,160.5z"/>
		<path d="M786.2,160.5h-6.6v-10.2h0.9v9.4h5.6V160.5z"/>
		<path d="M791.5,157h-4.2v-0.9h4.2V157z"/>
		<path d="M636.2,176.3v1.3h-0.9v-10.2h0.9v4.3c0.3-0.8,1.2-1.4,2.3-1.4c1.8,0,3,1.4,3,3.8c0,2.4-1.2,3.7-3,3.7
			C637.3,177.7,636.5,177.1,636.2,176.3z M638.3,177c1.4,0,2.2-1.1,2.2-3c0-1.9-0.9-3-2.2-3c-1.3,0-2.2,1-2.2,3
			C636.1,175.9,637,177,638.3,177z"/>
		<path d="M648.4,172.5v3.6c0,0.7,0.2,0.9,0.6,0.9c0.2,0,0.3,0,0.4-0.1v0.6c-0.1,0-0.4,0.1-0.7,0.1c-0.7,0-1.1-0.2-1.2-1.2h0
			c-0.3,0.6-1.1,1.2-2.4,1.2c-1.4,0-2.4-0.7-2.4-2c0-1.4,1.3-1.9,3-2.2l0.8-0.1c0.8-0.2,1-0.3,1-0.8v-0.1c0-0.9-0.5-1.5-1.8-1.5
			c-1.3,0-1.8,0.7-1.8,1.7l-0.9-0.1c0-1.4,1.1-2.3,2.8-2.3C647.2,170.3,648.4,170.7,648.4,172.5z M647.5,175v-1.4
			c-0.1,0.1-0.3,0.2-0.6,0.2l-1.7,0.4c-1,0.2-1.5,0.5-1.5,1.4c0,0.9,0.7,1.4,1.7,1.4C646.5,177,647.5,176.3,647.5,175z"/>
		<path d="M654.7,171.9c-0.4-0.5-1-0.9-1.9-0.9c-0.9,0-1.6,0.4-1.6,1.1c0,0.8,0.5,1,1.4,1.2l0.9,0.2c1.2,0.3,2.1,0.7,2.1,2
			c0,1.4-1.2,2.1-2.7,2.1c-1.5,0-2.5-0.7-3-1.5l0.7-0.5c0.5,0.7,1.2,1.2,2.3,1.2c1.2,0,1.8-0.6,1.8-1.3c0-0.8-0.6-1-1.5-1.2l-1-0.2
			c-1.3-0.3-2-0.8-2-2c0-1.3,1.2-2,2.5-2c1.2,0,2.1,0.5,2.6,1.1L654.7,171.9z"/>
		<path d="M663.3,175.8c-0.4,0.8-1.3,1.9-3.1,1.9c-2,0-3.3-1.4-3.3-3.8c0-2.2,1.3-3.7,3.2-3.7c2.1,0,3.1,1.6,3.1,3.7v0.1h-5.4v0.1
			c0,1.9,1.1,2.8,2.4,2.8c1.4,0,2.1-0.9,2.4-1.6L663.3,175.8z M657.9,173.3h4.4c0-1.1-0.8-2.3-2.2-2.3
			C658.8,171,658,171.9,657.9,173.3z"/>
		<path d="M664.6,174c0-2.4,1.2-3.8,3-3.8c1.1,0,2,0.6,2.3,1.4v-4.3h0.9v10.2H670v-1.3c-0.4,0.8-1.2,1.5-2.4,1.5
			C665.8,177.7,664.6,176.4,664.6,174z M667.8,171c-1.4,0-2.2,1-2.2,3c0,1.9,0.8,3,2.2,3c1.4,0,2.2-1,2.2-3
			C670,172,669.1,171,667.8,171z"/>
		<path d="M680.8,171.9c-0.4-0.5-1-0.9-1.9-0.9c-0.9,0-1.6,0.4-1.6,1.1c0,0.8,0.5,1,1.4,1.2l0.9,0.2c1.2,0.3,2.1,0.7,2.1,2
			c0,1.4-1.2,2.1-2.7,2.1c-1.5,0-2.5-0.7-3-1.5l0.7-0.5c0.5,0.7,1.2,1.2,2.3,1.2c1.2,0,1.8-0.6,1.8-1.3c0-0.8-0.6-1-1.5-1.2l-1-0.2
			c-1.3-0.3-2-0.8-2-2c0-1.3,1.2-2,2.5-2c1.2,0,2.1,0.5,2.6,1.1L680.8,171.9z"/>
		<path d="M684.4,168.8h-0.9v-1.5h0.9V168.8z M684.4,177.5h-0.9v-7.1h0.9V177.5z"/>
		<path d="M695,173.7c0-1.1,0-1.7-0.3-2.2c-0.2-0.2-0.5-0.5-1-0.5c-1.2,0-1.9,1-1.9,2.7v3.8h-0.9v-3.9c0-1.1,0-1.7-0.3-2.2
			c-0.2-0.2-0.5-0.5-1-0.5c-1.2,0-1.9,1-1.9,2.7v3.8h-0.9v-7.1h0.9v1.2h0c0.3-0.9,1.2-1.4,2.1-1.4c0.9,0,1.8,0.5,1.9,1.5
			c0.3-0.9,1.2-1.5,2.2-1.5c0.5,0,1,0.1,1.4,0.5c0.5,0.5,0.7,1.1,0.7,2.5v4.3H695V173.7z"/>
		<path d="M698.1,170.4h0.9v4.1c0,0.9,0.1,1.5,0.5,1.9c0.3,0.3,0.7,0.5,1.3,0.5c1.5,0,2-1.2,2-2.2v-4.2h0.9v7.1h-0.9v-1.2h0
			c-0.3,0.7-1,1.3-2.2,1.3c-0.7,0-1.4-0.2-1.8-0.7c-0.4-0.5-0.6-1.1-0.6-2.2V170.4z"/>
		<path d="M706.8,177.5h-0.9v-10.2h0.9V177.5z"/>
		<path d="M714.2,172.5v3.6c0,0.7,0.2,0.9,0.6,0.9c0.2,0,0.3,0,0.4-0.1v0.6c-0.1,0-0.4,0.1-0.7,0.1c-0.7,0-1.1-0.2-1.2-1.2h0
			c-0.3,0.6-1.1,1.2-2.4,1.2c-1.4,0-2.4-0.7-2.4-2c0-1.4,1.3-1.9,3-2.2l0.8-0.1c0.8-0.2,1-0.3,1-0.8v-0.1c0-0.9-0.5-1.5-1.8-1.5
			c-1.3,0-1.8,0.7-1.8,1.7l-0.9-0.1c0-1.4,1.1-2.3,2.8-2.3C713,170.3,714.2,170.7,714.2,172.5z M713.3,175v-1.4
			c-0.1,0.1-0.3,0.2-0.6,0.2l-1.7,0.4c-1,0.2-1.5,0.5-1.5,1.4c0,0.9,0.7,1.4,1.7,1.4C712.3,177,713.3,176.3,713.3,175z"/>
		<path d="M715.6,170.4h1.4v-2.7l0.9-0.2v2.9h1.7v0.7h-1.7v4.8c0,0.8,0.2,1,0.8,1c0.4,0,0.7-0.1,0.9-0.2v0.8
			c-0.2,0.1-0.7,0.2-1.1,0.2c-0.9,0-1.5-0.3-1.5-1.6v-5h-1.4V170.4z"/>
		<path d="M722.1,168.8h-0.9v-1.5h0.9V168.8z M722.1,177.5h-0.9v-7.1h0.9V177.5z"/>
		<path d="M727.2,170.2c2,0,3.2,1.5,3.2,3.8c0,2.2-1.2,3.7-3.2,3.7c-2,0-3.2-1.5-3.2-3.7C724,171.7,725.2,170.2,727.2,170.2z
			 M727.2,177c1.4,0,2.3-1.1,2.3-3c0-1.9-0.9-3-2.3-3c-1.4,0-2.3,1.1-2.3,3C724.9,175.9,725.8,177,727.2,177z"/>
		<path d="M737.9,177.5H737v-3.8c0-1.1-0.1-1.8-0.5-2.2c-0.3-0.3-0.7-0.5-1.3-0.5c-0.7,0-1.2,0.2-1.5,0.6c-0.4,0.4-0.6,1.1-0.6,1.7
			v4.2h-0.9v-7.1h0.9v1.2h0c0.3-0.7,1.1-1.3,2.3-1.3c0.7,0,1.4,0.2,1.8,0.7c0.5,0.5,0.6,1,0.6,2.6V177.5z"/>
		<path d="M744.2,171.9c-0.4-0.5-1-0.9-1.9-0.9c-0.9,0-1.6,0.4-1.6,1.1c0,0.8,0.5,1,1.4,1.2l0.9,0.2c1.2,0.3,2.1,0.7,2.1,2
			c0,1.4-1.2,2.1-2.7,2.1c-1.5,0-2.5-0.7-3-1.5l0.7-0.5c0.5,0.7,1.2,1.2,2.3,1.2c1.2,0,1.8-0.6,1.8-1.3c0-0.8-0.6-1-1.5-1.2l-1-0.2
			c-1.3-0.3-2-0.8-2-2c0-1.3,1.2-2,2.5-2c1.2,0,2.1,0.5,2.6,1.1L744.2,171.9z"/>
		<path d="M640,189.6c-0.4-1-1-1.6-2-1.6c-1.4,0-2.3,1.1-2.3,3c0,1.9,0.9,3,2.3,3c1,0,1.6-0.5,2.1-1.4l0.7,0.4
			c-0.5,1-1.4,1.7-2.8,1.7c-2,0-3.2-1.4-3.2-3.7c0-2.3,1.3-3.8,3.2-3.8c1.4,0,2.3,0.7,2.8,1.9L640,189.6z"/>
		<path d="M645.2,187.2c2,0,3.2,1.5,3.2,3.8c0,2.2-1.2,3.7-3.2,3.7c-2,0-3.2-1.5-3.2-3.7C641.9,188.7,643.2,187.2,645.2,187.2z
			 M645.2,194c1.4,0,2.3-1.1,2.3-3c0-1.9-0.9-3-2.3-3s-2.3,1.1-2.3,3C642.9,192.9,643.8,194,645.2,194z"/>
		<path d="M658.6,190.7c0-1.1,0-1.7-0.3-2.2c-0.2-0.2-0.5-0.5-1-0.5c-1.2,0-1.9,1-1.9,2.7v3.8h-0.9v-3.9c0-1.1,0-1.7-0.3-2.2
			c-0.2-0.2-0.5-0.5-1-0.5c-1.2,0-1.9,1-1.9,2.7v3.8h-0.9v-7.1h0.9v1.2h0c0.3-0.9,1.2-1.4,2.1-1.4c0.9,0,1.8,0.5,1.9,1.5
			c0.3-0.9,1.2-1.5,2.2-1.5c0.5,0,1,0.1,1.4,0.5c0.5,0.5,0.7,1.1,0.7,2.5v4.3h-0.9V190.7z"/>
		<path d="M662.6,193.3v4.1h-0.9v-10h0.9v1.3c0.3-0.8,1.2-1.4,2.3-1.4c1.8,0,3,1.4,3,3.8c0,2.4-1.2,3.7-3,3.7
			C663.8,194.7,663,194.1,662.6,193.3z M664.8,194c1.4,0,2.2-1.1,2.2-3c0-1.9-0.9-3-2.2-3c-1.3,0-2.2,1-2.2,3
			C662.6,192.9,663.5,194,664.8,194z"/>
		<path d="M674.9,189.5v3.6c0,0.7,0.2,0.9,0.6,0.9c0.2,0,0.3,0,0.4-0.1v0.6c-0.1,0-0.4,0.1-0.7,0.1c-0.7,0-1.1-0.2-1.2-1.2h0
			c-0.3,0.6-1.1,1.2-2.4,1.2c-1.4,0-2.4-0.7-2.4-2c0-1.4,1.3-1.9,3-2.2l0.8-0.1c0.8-0.2,1-0.3,1-0.8v-0.1c0-0.9-0.5-1.5-1.8-1.5
			c-1.3,0-1.8,0.7-1.8,1.7l-0.9-0.1c0-1.4,1.1-2.3,2.8-2.3C673.7,187.3,674.9,187.7,674.9,189.5z M674,192v-1.4
			c-0.1,0.1-0.3,0.2-0.6,0.2l-1.7,0.4c-1,0.2-1.5,0.5-1.5,1.4c0,0.9,0.7,1.4,1.7,1.4C673,194,674,193.3,674,192z"/>
		<path d="M680.7,188.2c-0.2,0-0.3,0-0.5,0c-1.2,0-2.1,1-2.1,2.4v4h-0.9v-7.1h0.9v1.4h0c0.3-0.8,1.1-1.6,2.2-1.6c0.2,0,0.3,0,0.5,0
			V188.2z"/>
		<path d="M688.1,192.8c-0.4,0.8-1.3,1.9-3.1,1.9c-2,0-3.3-1.4-3.3-3.8c0-2.2,1.3-3.7,3.2-3.7c2.1,0,3.1,1.6,3.1,3.7v0.1h-5.4v0.1
			c0,1.9,1.1,2.8,2.4,2.8c1.4,0,2.1-0.9,2.4-1.6L688.1,192.8z M682.6,190.3h4.4c0-1.1-0.8-2.3-2.2-2.3
			C683.6,188,682.7,188.9,682.6,190.3z"/>
		<path d="M689.4,191c0-2.4,1.2-3.8,3-3.8c1.1,0,2,0.6,2.3,1.4v-4.3h0.9v10.2h-0.9v-1.3c-0.4,0.8-1.2,1.5-2.4,1.5
			C690.6,194.7,689.4,193.4,689.4,191z M692.5,188c-1.4,0-2.2,1-2.2,3c0,1.9,0.8,3,2.2,3c1.4,0,2.2-1,2.2-3
			C694.7,189,693.9,188,692.5,188z"/>
		<path d="M700.6,187.4h1.4v-2.7l0.9-0.2v2.9h1.7v0.7h-1.7v4.8c0,0.8,0.2,1,0.8,1c0.4,0,0.7-0.1,0.9-0.2v0.8
			c-0.2,0.1-0.7,0.2-1.1,0.2c-0.9,0-1.5-0.3-1.5-1.6v-5h-1.4V187.4z"/>
		<path d="M709,187.2c2,0,3.2,1.5,3.2,3.8c0,2.2-1.2,3.7-3.2,3.7c-2,0-3.2-1.5-3.2-3.7C705.7,188.7,707,187.2,709,187.2z M709,194
			c1.4,0,2.3-1.1,2.3-3c0-1.9-0.9-3-2.3-3c-1.4,0-2.3,1.1-2.3,3C706.7,192.9,707.6,194,709,194z"/>
		<path d="M725.9,190.7c0-1.1,0-1.7-0.3-2.2c-0.2-0.2-0.5-0.5-1-0.5c-1.2,0-1.9,1-1.9,2.7v3.8h-0.9v-3.9c0-1.1,0-1.7-0.3-2.2
			c-0.2-0.2-0.5-0.5-1-0.5c-1.2,0-1.9,1-1.9,2.7v3.8h-0.9v-7.1h0.9v1.2h0c0.3-0.9,1.2-1.4,2.1-1.4c0.9,0,1.8,0.5,1.9,1.5
			c0.3-0.9,1.2-1.5,2.2-1.5c0.5,0,1,0.1,1.4,0.5c0.5,0.5,0.7,1.1,0.7,2.5v4.3h-0.9V190.7z"/>
		<path d="M734.1,189.5v3.6c0,0.7,0.2,0.9,0.6,0.9c0.2,0,0.3,0,0.4-0.1v0.6c-0.1,0-0.4,0.1-0.7,0.1c-0.7,0-1.1-0.2-1.2-1.2h0
			c-0.3,0.6-1.1,1.2-2.4,1.2c-1.4,0-2.4-0.7-2.4-2c0-1.4,1.3-1.9,3-2.2l0.8-0.1c0.8-0.2,1-0.3,1-0.8v-0.1c0-0.9-0.5-1.5-1.8-1.5
			c-1.3,0-1.8,0.7-1.8,1.7l-0.9-0.1c0-1.4,1.1-2.3,2.8-2.3C732.9,187.3,734.1,187.7,734.1,189.5z M733.3,192v-1.4
			c-0.1,0.1-0.3,0.2-0.6,0.2l-1.7,0.4c-1,0.2-1.5,0.5-1.5,1.4c0,0.9,0.7,1.4,1.7,1.4C732.2,194,733.3,193.3,733.3,192z"/>
		<path d="M741.2,189.6c-0.4-1-1-1.6-2-1.6c-1.4,0-2.3,1.1-2.3,3c0,1.9,0.9,3,2.3,3c1,0,1.6-0.5,2.1-1.4l0.7,0.4
			c-0.5,1-1.4,1.7-2.8,1.7c-2,0-3.2-1.4-3.2-3.7c0-2.3,1.3-3.8,3.2-3.8c1.4,0,2.3,0.7,2.8,1.9L741.2,189.6z"/>
		<path d="M749.1,194.5h-0.9v-3.8c0-1.1-0.1-1.8-0.5-2.2c-0.3-0.3-0.7-0.5-1.3-0.5c-0.6,0-1.1,0.2-1.5,0.6c-0.4,0.4-0.6,1.1-0.6,1.7
			v4.2h-0.9v-10.2h0.9v4.2c0.3-0.7,1.1-1.3,2.3-1.3c0.7,0,1.3,0.2,1.8,0.7c0.5,0.5,0.6,1,0.6,2.6V194.5z"/>
		<path d="M752.3,185.8h-0.9v-1.5h0.9V185.8z M752.3,194.5h-0.9v-7.1h0.9V194.5z"/>
		<path d="M760.2,194.5h-0.9v-3.8c0-1.1-0.1-1.8-0.5-2.2c-0.3-0.3-0.7-0.5-1.3-0.5c-0.7,0-1.2,0.2-1.5,0.6c-0.4,0.4-0.6,1.1-0.6,1.7
			v4.2h-0.9v-7.1h0.9v1.2h0c0.3-0.7,1.1-1.3,2.3-1.3c0.7,0,1.4,0.2,1.8,0.7c0.5,0.5,0.6,1,0.6,2.6V194.5z"/>
		<path d="M768.3,192.8c-0.4,0.8-1.3,1.9-3.1,1.9c-2,0-3.3-1.4-3.3-3.8c0-2.2,1.3-3.7,3.2-3.7c2.1,0,3.1,1.6,3.1,3.7v0.1h-5.4v0.1
			c0,1.9,1.1,2.8,2.4,2.8c1.4,0,2.1-0.9,2.4-1.6L768.3,192.8z M762.9,190.3h4.4c0-1.1-0.8-2.3-2.2-2.3
			C763.8,188,763,188.9,762.9,190.3z"/>
		<path d="M773.7,188.2c-0.2,0-0.3,0-0.5,0c-1.2,0-2.1,1-2.1,2.4v4h-0.9v-7.1h0.9v1.4h0c0.3-0.8,1.1-1.6,2.2-1.6c0.2,0,0.3,0,0.5,0
			V188.2z"/>
		<path d="M776.6,191.1c0.3,0.9,0.6,1.8,0.8,2.4h0c0.3-0.8,0.5-1.5,0.9-2.4l1.4-3.6h0.9l-3.2,8.1c-0.2,0.5-0.4,1-0.6,1.3
			c-0.3,0.5-0.6,0.7-1.3,0.7c-0.4,0-0.7-0.1-0.9-0.1v-0.9c0.3,0.1,0.6,0.2,0.9,0.2c0.3,0,0.5-0.1,0.6-0.3c0.1-0.2,0.2-0.4,0.4-0.8
			l0.4-1l-2.5-7.1h1L776.6,191.1z"/>
	</g>
	<g>
		<path class="st2" d="M53.8,177.5c0.4-3.2,1.8-6.2,3.6-9H53v2.1h-1.2v-3.3h7v1.1c-2,2.8-3.2,5.6-3.6,9.1H53.8z"/>
		<path class="st2" d="M65.7,170.1c-0.1-0.6-0.5-1.8-2-1.8c-1.6,0-2.4,1.6-2.4,3.6c0.4-0.6,1.4-1.2,2.6-1.2c1.8,0,3.3,1.1,3.3,3.3
			c0,2-1.3,3.6-3.5,3.6c-2.2,0-3.7-1.6-3.7-5.2c0-3.4,1.4-5.4,3.9-5.4c2.1,0,3,1.4,3.2,2.5L65.7,170.1z M63.6,171.9
			c-1.3,0-2.1,0.8-2.3,1.4c0,1.8,0.8,3.3,2.3,3.3c1.2,0,2.1-0.9,2.1-2.4C65.8,172.7,64.9,171.9,63.6,171.9z"/>
	</g>
	<g>
		<path class="st2" d="M167.6,192.2l0.5-5.8h5.7v1.2h-4.6l-0.3,3c0.3-0.4,1-0.9,2.2-0.9c1.9,0,3.3,1.3,3.3,3.4c0,2-1.2,3.7-3.6,3.7
			c-1.8,0-3.1-0.9-3.5-2.5l1.3-0.5c0.1,1,0.9,1.9,2.2,1.9c1.4,0,2.2-1,2.2-2.5c0-1.3-0.8-2.4-2.2-2.4c-1.2,0-1.9,0.7-2.1,1.7
			L167.6,192.2z"/>
		<path class="st2" d="M177.2,193.8c0.1,0.6,0.5,1.8,2,1.8c1.6,0,2.4-1.6,2.4-3.6c-0.4,0.6-1.4,1.2-2.6,1.2c-1.8,0-3.3-1.1-3.3-3.3
			c0-2,1.3-3.6,3.5-3.6c2.2,0,3.7,1.6,3.7,5.2c0,3.4-1.4,5.4-3.9,5.4c-2.1,0-3-1.4-3.2-2.5L177.2,193.8z M179.2,191.9
			c1.3,0,2.1-0.8,2.3-1.4c0-1.9-0.8-3.3-2.3-3.3c-1.2,0-2.1,0.9-2.1,2.4C177.1,191.1,178,191.9,179.2,191.9z"/>
	</g>
	<g>
		<path class="st2" d="M283.3,192.8l0.5-5.8h5.7v1.2h-4.6l-0.3,3c0.3-0.4,1-0.9,2.2-0.9c1.9,0,3.3,1.3,3.3,3.4c0,2-1.2,3.7-3.6,3.7
			c-1.8,0-3.1-0.9-3.5-2.5l1.3-0.5c0.1,1,0.9,1.9,2.2,1.9c1.4,0,2.2-1,2.2-2.5c0-1.3-0.8-2.4-2.2-2.4c-1.2,0-1.9,0.7-2.1,1.7
			L283.3,192.8z"/>
		<path class="st2" d="M291.4,194.4c0-1.4,0.9-2.2,1.9-2.5c-0.9-0.3-1.6-1.1-1.6-2.3c0-1.5,1.2-2.7,3.4-2.7c2.1,0,3.4,1.2,3.4,2.7
			c0,1.2-0.8,2-1.6,2.3c1,0.4,1.9,1.1,1.9,2.5c0,1.7-1.2,3-3.6,3C292.6,197.4,291.4,196.1,291.4,194.4z M292.7,194.3
			c0,1.1,0.8,1.9,2.3,1.9c1.5,0,2.3-0.8,2.3-1.9c0-1.1-0.9-1.9-2.3-1.9C293.6,192.4,292.7,193.2,292.7,194.3z M293,189.6
			c0,0.9,0.7,1.7,2.1,1.7c1.4,0,2.1-0.8,2.1-1.7c0-1-0.7-1.7-2.1-1.7C293.7,187.9,293,188.6,293,189.6z"/>
	</g>
	<g>
		<path class="st2" d="M398.7,196.7l0.5-5.8h5.7v1.2h-4.6l-0.3,3c0.3-0.4,1-0.9,2.2-0.9c1.9,0,3.3,1.3,3.3,3.4c0,2-1.2,3.7-3.6,3.7
			c-1.8,0-3.1-0.9-3.5-2.5l1.3-0.5c0.2,1,0.9,1.9,2.2,1.9c1.4,0,2.2-1,2.2-2.5c0-1.3-0.8-2.4-2.2-2.4c-1.2,0-1.9,0.7-2.1,1.7
			L398.7,196.7z"/>
		<path class="st2" d="M410.7,201.2c-2.8,0-3.9-2.4-3.9-5.2c0-2.7,1.1-5.3,3.9-5.3c2.7,0,3.8,2.4,3.8,5.3
			C414.5,198.7,413.6,201.2,410.7,201.2z M410.7,191.9c-1.8,0-2.5,2-2.5,4.1c0,2,0.6,4.1,2.5,4.1c1.9,0,2.4-2,2.4-4.1
			C413.1,193.8,412.5,191.9,410.7,191.9z"/>
	</g>
	<g>
		<path class="st2" d="M520.4,202.5h-1.3V200h-4.7v-1l4.7-6.7h1.2v6.6h1.7v1.1h-1.7V202.5z M519.1,198.9v-2c0-0.8,0.1-2.6,0.1-3h0
			c-0.3,0.5-1.3,2.2-1.7,2.7l-1.6,2.3H519.1z"/>
		<path class="st2" d="M525,202.5c0.4-3.2,1.8-6.2,3.6-9h-4.3v2.1H523v-3.3h7v1.1c-2,2.8-3.2,5.6-3.6,9.1H525z"/>
	</g>
	<g>
		<g>
			<line class="st39" x1="101.2" y1="97.6" x2="104.2" y2="97.6"/>
			<line class="st40" x1="107.2" y1="97.6" x2="612.6" y2="97.6"/>
			<line class="st39" x1="614.1" y1="97.6" x2="617.1" y2="97.6"/>
		</g>
	</g>
	<g>
		<line x1="602.1" y1="155.1" x2="602.1" y2="97.6"/>
		<g>
			<line class="st39" x1="602.1" y1="155.1" x2="602.1" y2="106.5"/>
			<g>
				<polygon class="st41" points="605,108.4 602.1,97.6 599.2,108.4 				"/>
			</g>
		</g>
	</g>
	<g>
		<g>
			<line class="st39" x1="563.9" y1="155.7" x2="566.9" y2="155.7"/>
			<line class="st42" x1="569.8" y1="155.7" x2="612.6" y2="155.7"/>
			<line class="st39" x1="614.1" y1="155.7" x2="617.1" y2="155.7"/>
		</g>
	</g>
	<line class="st43" x1="7.9" y1="247.9" x2="573.9" y2="247.9"/>
</g>
</svg>
